<svg id="Layer_1" xmlns="http://www.w3.org/2000/svg" viewBox="0 0 190.7 75.7"><style>.st0,.st1{enable-background:new}.st0{fill:#df531c;opacity:.1}.st1{opacity:.5}.st2{fill:#df531c}</style><path class="st0" d="M38.3 74.8s-.4-13.6-8.4-14c-8-.3-22.7-.2-25.3-16.8C2 27.8-3.9 11.9 28.6 6.7 61.5 1.4 158.9 1 182.1 16.4c12.6 8.4 11.4 41.3-24.5 41.6-41.4.3-41.3 1.7-41.3 1.7s-55.6-.1-64.1 1.4c-8 1.5-13.5 8.5-13.9 13.7z"/><g class="st1"><path class="st2" d="M23.5 41.7c-.1 0-.1 0 0 0l-.1-.1s0-.1.1-.1h.1c-.2-.2-.3-.4-.3-.5 0-.2-.1-.3-.2-.6 0 0 .1-.1.1-.2V40c0-.1 0-.1.1-.1h.1v-.3c0-.1.1-.2.1-.2 0-.1.1-.1.1-.2s0-.2-.1-.3c.2-.3.4-.7.4-1 .1-.4.1-.7.1-1 .1-.1.2-.3.3-.4.1-.2.1-.4.2-.6 0-.2.1-.4.1-.6 0-.2 0-.3-.1-.4 0 0 0-.1.1-.1h.2c.1-.5.1-1 .2-1.6s.1-1.2.2-1.7.2-1 .4-1.4c.2-.4.5-.7 1-.8.1.3.2.6.3.8.1.2.3.4.4.7s.3.4.5.6c.2.2.3.5.5.7 0 .3 0 .6-.1 1s-.1.7-.2 1.1c-.1.4-.1.7-.2 1.1s-.1.6-.2.9c0 .1.1.1.1.1.1 0 .1.1 0 .2.3-.1.7-.2 1.1-.2.4-.1.7-.2 1.1-.2s.7-.2 1.1-.3c.4-.1.7-.2 1-.4.1-.6.2-1.1.3-1.7s.1-1.1 0-1.7l.2-.2c0-.1.1-.1.2-.2-.1-.3-.1-.6-.1-.9 0-.3.1-.6.2-.9.1-.3.2-.5.4-.7s.4-.3.7-.4c.2.2.3.5.4.7s.2.5.4.8c.1.3.2.5.4.8.1.2.3.4.5.6 0 .4.1.8.1 1.3 0 .4 0 .9.1 1.4-.1.5-.2 1.1-.4 1.6-.1.5-.2 1.1-.3 1.6-.1.1-.2.2-.2.4-.1.2-.1.3-.2.5-.1.1-.1.3-.2.4-.1.1-.2.3-.3.4 0 .2.1.3 0 .5 0 .1 0 .3.1.5 0 .4 0 .7-.1.9-.1.2-.3.5-.5.6-.2.2-.4.3-.7.4s-.5.2-.8.3c-.1-.1-.2-.1-.3-.2-.1-.1-.2-.1-.4-.2l.1-.2c-.2-.2-.4-.5-.6-.8-.2-.3-.3-.6-.2-.9v-.2c0-.1.1-.3.1-.5s.1-.3.1-.5v-.2c-.3 0-.7.1-1 .2-.4.1-.7.3-1.1.4-.3.1-.7.3-1 .5-.3.2-.5.3-.7.4 0 0 0 .1-.1.3s-.1.3-.2.5-.2.4-.3.5c-.1.1-.2.2-.3.2 0 .1 0 .1.1.1v.2c-.2.1-.4.1-.5.2-.2.1-.3.2-.5.2-.2.1-.4.1-.5.1-.2 0-.4-.1-.7-.2 0-.1 0-.2-.1-.2l-.2-.2c-.1 0-.1-.1-.2-.1-.2 0-.2-.1-.2-.1zM35.5 40.6l.2-.2V40l.9-2.1c.3-.7.6-1.4 1-2.1.1-.2.2-.5.3-.7s.2-.5.3-.7v-.2-.2c.2-.2.3-.5.4-.6l.3-.6c.1-.2.2-.5.4-.7.1-.2.3-.5.5-.7l.1-.2h.2s.1 0 .2-.1h.2l.3.1c.4-.2.7-.4 1.1-.8s.6-.8.9-1.2l.2-.3.3.2c.1 0 .2.1.3.1s.3.1.4.1c.3.1.5.1.7.2l.6.3.1.2c0 .1 0 .3.1.4 0 .1 0 .2.1.3 0 .3.1.5.1.7 0 .2.1.5.1.8.1.2.1.5.2.7.1.2.1.5.2.7.1.3.1.7.2 1l.3.9h.2c.1-.1.3-.1.5-.1h.2l.1.2.1.1.1.1c.2 0 .3.1.4.1.1.1.2.1.2.2l.1.1.1.1.3.1-.2.3c-.1.3-.3.5-.6.7l-.9.6v.5c0 .2.1.5.1.7v.8c-.1.3-.3.6-.4.8-.2.2-.4.5-.6.7-.2.2-.5.4-.7.5-.3.1-.6.2-.9.2-.2 0-.3-.1-.4-.1s-.1-.1-.2-.1c-.1-.1-.2-.1-.2-.1l-.2-.1.1-.3v-.3c0-.1-.1-.2-.3-.3l-.1-.1-.1-.1-.4-.4.6-.2c.4-.1.6-.2.7-.4.1-.1.2-.4.1-.8-.3-.1-.5-.1-.7 0s-.4.1-.6.1c-.3.1-.5.1-.8.2-.3.1-.6.1-.9.1-.2 0-.4 0-.6-.1h-.2l-.1-.2v-.1l-.1-.1c-.1-.1-.1-.2-.2-.3-.1-.1-.1-.3-.1-.5-.1-.1-.1-.3-.1-.4 0 .1-.1.2-.1.3s-.1.2-.1.3l-.1.2h-.2s0 .1-.1.1 0 .1 0 .1l.1.2-.2.2-.1.1s-.1 0-.1.1-.1.3-.1.4c0 .1-.1.2-.1.4-.1.2-.1.4-.2.6-.1.2-.1.4-.1.5l-.1.2c-.1.1-.1.2-.2.2s-.2.1-.3.1c-.1 0-.2.1-.3.1l-.1.2h-.3c-.2 0-.3.1-.3.1h-.4c-.1-.1-.3-.3-.4-.3s-.2-.1-.3-.2l.1.2c0-.1-.1-.2-.1-.3 0-.1 0-.2-.1-.2 0-.2-.1-.3-.1-.3l-.2-.3zm5.8-4.7c-.2.2-.3.5-.5.8h.4c.4 0 .8-.1 1.2-.1.4 0 .7-.1 1.2-.2-.1-.4-.2-.9-.3-1.4-.1-.5-.2-.9-.4-1.4l-.1.2c-.3.3-.6.7-.9 1-.2.4-.4.8-.6 1.1zM48.8 40.7v-1c0-.3.1-.6.1-.8s.2-.5.3-.8c.1-.2.2-.5.4-.8.2-.1.3-.1.4-.2.1-.1.3-.2.4-.3.1-.1.2-.2.4-.3.1-.1.2-.1.3-.1l.2-.1c.2-.3.5-.5.9-.8.3-.2.7-.5 1.1-.7.3-.2.6-.4.9-.5.3-.2.6-.4.8-.6.1 0 .2 0 .3-.1.1-.1.1-.2.1-.3l.1-.1.1-.1c.1-.1.2-.2.4-.3.2-.1.3-.2.4-.4l.5-.4h-.6c-.3 0-.7 0-1 .1s-.7.1-.9.1c-.2 0-.4 0-.7.1H53c-.2-.1-.4-.3-.6-.6-.2-.2-.3-.5-.4-.7s-.1-.5-.2-.8c0-.3 0-.6.1-.8.1 0 .2-.1.3-.1.1 0 .2-.1.2-.1h.5c.7-.1 1.3-.2 1.8-.2s1 .1 1.4.2c.5 0 1 0 1.5-.1.5 0 1.1 0 1.6.1.4-.1.8-.2 1.2-.1.4.1.7.2 1 .5 0 .2.1.4.2.5.1.1.3.2.4.3.1.4.1.8 0 1.1s-.2.6-.5.8c-.2.2-.5.5-.8.7l-.9.6-.3.3-.3.3c-.5.6-1 1.2-1.6 1.6s-1.2.9-1.9 1.3c-.5.3-.9.6-1.4.9-.4.3-.9.6-1.3 1l-.2.2.2.2c.2.2.4.3.6.3.1 0 .3 0 .4-.1.1 0 .2-.1.4-.1.1 0 .2-.1.3-.1h.4c.2-.1.3-.2.4-.2.1 0 .2-.1.4-.1.1 0 .2-.1.3-.1s.2-.1.3-.1c.3 0 .6 0 .9-.1.3-.1.6-.2.8-.3.2-.1.3-.1.5-.2s.3-.1.5-.2c.1.1.1.2.2.2.1.1.2.1.2.1.1.1.2.1.2.2s.1.1.1.2l.1.6.4-.4c.2.2.3.3.3.5s0 .4-.1.7c-.5.5-1 .8-1.7 1.1-.7.3-1.4.5-2.2.7-.2 0-.3.1-.5.1s-.3.1-.5.2v-.4l-.7.3c-.1 0-.1.1-.1.1l-.1.1c-.4.1-.7.1-.9.2s-.5.1-.7.1c-.2.1-.5.1-.7.1-.2.2-.5.2-.7.2h-.4c-.1 0-.2 0-.3-.1l-.3-.5-.3.3c-.1-.1-.3-.2-.4-.3-.1-.1-.3-.2-.4-.4-.1-.1-.2-.2-.2-.4v-.2l-.2-.1s0-.1-.1-.2c0-.1-.1-.2-.1-.3-.2.1-.2 0-.3-.1zM69.6 40.7c-.3-.3-.6-.6-.9-1s-.4-.8-.5-1.3c-.1-.4-.2-.8-.2-1.3s-.1-.9 0-1.4c.1-.3.2-.6.4-.9s.3-.5.5-.8c.2-.2.4-.5.6-.7.2-.2.4-.4.6-.7.1 0 .1 0 .2.1 0-.1.1-.2.2-.3l.3-.3c.1-.1.2-.2.3-.2l.3-.3c.3-.1.6-.2.8-.3.2-.1.5-.3.7-.4.2-.2.4-.3.7-.4.2-.1.5-.2.8-.3.1-.1.2-.2.4-.3.2-.1.3-.2.5-.2.2-.1.3-.1.5-.2s.3-.2.4-.3c.1.1.2.1.3.1.1 0 .3-.1.4-.1h.2l.1.1.1.1s.1 0 .1-.1c.1 0 .1.1.1.1l-.1.1c.1 0 .2 0 .3.1.1.1.2.1.4.1l.1.1s0 .1-.1.2c.4.1.7.3.8.6.1.3.1.6 0 .9-.1.3-.3.6-.5.8s-.5.4-.9.5c-.4.1-.7.2-1 .3l-.9.3c-.3.1-.6.3-.8.4-.3.2-.5.4-.7.6-.3.1-.6.2-.9.4-.3.2-.5.4-.8.6s-.5.4-.7.6-.4.4-.6.7c0 .2 0 .4-.1.5-.1.1-.1.2-.2.3 0 .2.1.4.2.6.1.2.2.3.2.5 1 .3 2 .5 3 .5 1.1.1 2.1.1 3.2.1.1.1.2.3.4.4l.4.4c.1.1.2.3.3.5s.1.4 0 .6c-.2.2-.4.4-.7.6-.2.2-.5.4-.7.5h-1.4c-.2 0-.3.1-.5.1-.8 0-1.5-.1-2.3-.3-.8-.2-1.5-.4-2.2-.6-.1-.2-.3-.3-.4-.4-.2-.1-.4-.2-.7-.3zM80.2 41.6s-.1-.1-.1-.2-.1-.1-.1-.2c-.2-.2-.3-.4-.4-.7-.1-.3-.2-.5-.2-.8v-.9c0-.3.1-.6.1-.8 0-.1.1-.2.1-.4.1-.2.1-.5.2-.7s.1-.4.3-.5V36c.1-.2.1-.3.2-.4 0 0 0-.1.1-.1v-.1c.1-.4.3-.8.4-1.2.1-.4.3-.8.4-1.1.2-.7.5-1.3.7-1.9.2-.6.4-1.3.6-2 .1-.1.2-.1.3-.1h.2c.3.1.5.3.9.4.3.1.6.2.9.2l.3.3c.2.2.3.4.4.6.1.2.1.5.1.8-.1.1-.1.2-.2.2-.1.3-.2.5-.2.7l-.3.6-.3.6c-.1.2-.2.5-.2.8-.1.1-.1.2-.1.2 0 .1 0 .1-.1.2 0 .1-.1.1-.1.2s-.1.1-.2.2c0 .4-.1.7-.2.9-.1.2-.2.5-.3.7-.2.4-.3.8-.5 1.3-.1.4-.2.9-.3 1.4.1 0 .3-.1.4-.1.2 0 .3 0 .4.1.4-.2.9-.3 1.4-.4.5 0 1-.1 1.5-.1.4 0 .8 0 1.2-.1.1.1.2.1.2.1h.4c.2.2.3.3.5.4.2.1.3.1.5.2s.3.1.5.2c.1.1.3.2.4.3l.2.9c.1.1.1.2.1.3 0 .1 0 .2-.1.3v.2c-.2 0-.4.1-.4.2-.1.1-.2.1-.2.2h-.4c-.2 0-.5 0-.7.1-.4-.1-.8-.2-1.2-.2h-.5c-.2 0-.3 0-.5.1-.2 0-.4 0-.5.1h-.5c-.1 0-.2 0-.3.1s-.1 0-.2.1c-.4.1-.8.3-1.3.4-.5.1-1 .2-1.4.2-.7 0-1.3-.2-1.7-.5 0-.1-.1-.2-.1-.2 0-.6 0-.6-.1-.7zM91.2 42.5c-.2-.1-.3-.2-.4-.4-.1-.2-.2-.3-.3-.5-.1-.2-.1-.4-.2-.6 0-.2-.1-.4-.1-.6 0-.2 0-.3.1-.4l.2-.2c.3 0 .5 0 .8-.1.2 0 .4-.1.7-.1s.4-.1.6-.1h.7c.2-.4.3-.7.5-1.1.2-.3.3-.7.4-1 .1-.3.2-.6.3-.8.1-.3.2-.5.3-.7.1-.2.2-.5.3-.7.1-.2.1-.5.2-.7.1-.4.3-.8.4-1.2s.2-.8.3-1.3c-.5.1-.8.1-1.1.2-.3.1-.5.1-.6.2-.2 0-.4-.1-.6-.1s-.2-.2-.3-.3c-.1-.1-.2-.3-.2-.4-.1-.2-.1-.3-.2-.5 0-.1.1-.3 0-.5 0-.2-.1-.4-.2-.5.1 0 .2-.1.2-.2s.1-.2 0-.3c.2-.1.4-.1.6-.1.2 0 .5 0 .7-.1.2 0 .4 0 .6-.1.2 0 .4-.1.5-.2.6 0 1.3 0 2-.1.7 0 1.3-.1 1.9-.1.2.1.5.1.7.1.3 0 .6 0 .8.1s.5.1.8.2c.2.1.4.3.5.6.2 0 .3.1.4.1.1.1.1.2.2.3v.7c-.2.1-.4.3-.7.4-.3.1-.6.2-1 .2-.3.1-.7.1-1.1.1h-1.1c-.1.4-.2.9-.3 1.4-.1.5-.3 1.1-.5 1.6s-.3 1-.4 1.4-.2.7-.2.8c-.1.3-.2.5-.3.7-.1.2-.2.4-.2.5-.1.2-.1.3-.2.5s-.1.3-.2.5h1.2c0 .1.1.2.2.3.1 0 .2.1.3.1.1 0 .2.1.3.1s.1.1.1.3c.2.1.4.2.4.3.1.1.1.2 0 .4s0 .3-.1.4c-.1.1-.2.3-.3.4-.1 0-.2 0-.3.1l-.3.3c-.3 0-.7-.1-1 0-.3 0-.6.1-.9.1-.1 0-.1 0-.1.1v.1c-.4-.1-.8-.2-1.1-.1-.4 0-.8.1-1.2.2l-1.2.3c-.4.1-.9 0-1.3 0z"/><path class="st2" d="M102 40.7c-.3-.3-.6-.6-.9-1s-.4-.8-.5-1.3c-.1-.4-.2-.9-.3-1.4 0-.5-.1-.9 0-1.4.1-.3.2-.6.4-.9s.3-.5.5-.8c.2-.2.4-.5.6-.7.2-.2.4-.4.6-.7.1 0 .1 0 .2.1 0-.1.1-.2.2-.3l.3-.3c.1-.1.2-.2.3-.2l.3-.3c.3-.1.6-.2.8-.3.2-.1.5-.3.7-.4.2-.2.4-.3.7-.4.2-.1.5-.2.8-.3.1-.1.2-.2.4-.3.2-.1.3-.2.5-.2.2-.1.3-.1.5-.2s.3-.2.4-.3c.1.1.2.1.3.1.1 0 .3-.1.4-.1h.2l.1.1.1.1s.1 0 .1-.1c.1 0 .1.1.1.1l-.1.1c.1 0 .2 0 .3.1.1.1.2.1.4.1l.1.1s0 .1-.1.2c.4.1.7.3.8.6.1.3.1.6 0 .9-.1.3-.3.6-.5.8s-.5.4-.9.5c-.4.1-.7.2-1 .3l-.9.3c-.3.1-.6.3-.8.4-.3.2-.5.4-.7.6-.3.1-.6.2-.9.4-.3.2-.5.4-.8.6s-.5.4-.7.6-.4.4-.6.7c0 .2 0 .4-.1.5-.1.1-.1.2-.2.3 0 .2.1.4.2.6.1.2.2.3.2.5 1 .3 2 .5 3 .5 1.1.1 2.1.1 3.2.1.1.1.2.3.4.4l.4.4c.1.1.2.3.3.5s.1.4 0 .6c-.2.2-.4.4-.7.6-.2.2-.5.4-.7.5H108c-.2 0-.3.1-.5.1-.8 0-1.5-.1-2.3-.3-.8-.2-1.5-.4-2.2-.6-.1-.2-.3-.3-.4-.4-.1 0-.3-.1-.6-.2zM118 40.6l.2-.2V40l.9-2.1c.3-.7.6-1.4 1-2.1.1-.2.2-.5.3-.7s.2-.5.3-.7v-.2-.2c.2-.2.3-.5.4-.6l.3-.6c.1-.2.2-.5.4-.7.1-.2.3-.5.5-.7l.1-.2h.2s.1 0 .2-.1h.2l.3.1c.4-.2.7-.4 1.1-.8s.6-.8.9-1.2l.2-.3.3.2c.1 0 .2.1.3.1s.3.1.4.1c.3.1.5.1.7.2l.6.3.1.2c0 .1 0 .3.1.4 0 .1 0 .2.1.3 0 .3.1.5.1.7 0 .2.1.5.1.8.1.2.1.5.2.7.1.2.1.5.2.7.1.3.1.7.2 1l.3.9h.2c.1-.1.3-.1.5-.1h.2l.1.2.1.1.1.1c.2 0 .3.1.4.1.1.1.2.1.2.2l.1.1.1.1.3.1-.2.3c-.1.3-.3.5-.6.7l-.9.6v.5c0 .2.1.5.1.7v.8c-.1.3-.3.6-.4.8-.2.2-.4.5-.6.7-.2.2-.5.4-.7.5-.3.1-.6.2-.9.2-.2 0-.3-.1-.4-.1s-.1-.1-.2-.1c-.1-.1-.2-.1-.2-.1l-.2-.1.1-.3v-.3c0-.1-.1-.2-.3-.3l-.1-.1-.1-.1-.4-.4.6-.2c.4-.1.6-.2.7-.4.1-.1.2-.4.1-.8-.3-.1-.5-.1-.7 0s-.4.1-.6.1c-.3.1-.5.1-.8.2-.3.1-.6.1-.9.1-.2 0-.4 0-.6-.1h-.2l-.1-.2v-.1l-.1-.1c-.1-.1-.1-.2-.2-.3-.1-.1-.1-.3-.1-.5-.1-.1-.1-.3-.1-.4 0 .1-.1.2-.1.3s-.1.2-.1.3l-.1.2h-.2s0 .1-.1.1 0 .1 0 .1l.1.2-.2.2-.1.1s-.1 0-.1.1-.1.3-.1.4c0 .1-.1.2-.1.4-.1.2-.1.4-.2.6-.1.2-.1.4-.1.5l-.1.2c-.1.1-.1.2-.2.2s-.2.1-.3.1c-.1 0-.2.1-.3.1l-.1.2h-.3c-.2 0-.3.1-.3.1h-.4c-.1-.1-.3-.3-.4-.3s-.2-.1-.3-.2l-.1-.1c0-.1-.1-.2-.1-.3 0-.1 0-.2-.1-.2 0-.2-.1-.3-.1-.3zm5.7-4.7c-.2.2-.3.5-.5.8h.4c.4 0 .8-.1 1.2-.1.4 0 .7-.1 1.2-.2-.1-.4-.2-.9-.3-1.4-.1-.5-.2-.9-.4-1.4l-.1.2c-.3.3-.6.7-.9 1-.2.4-.4.8-.6 1.1zM131.6 40.7v-.5c0-.1-.1-.3-.1-.4s-.1-.3-.1-.4c0-.1 0-.3.1-.5 0-.1-.1-.2-.1-.3 0-.1-.1-.2-.1-.3 0-.5.1-1 .3-1.5.2-.4.4-.8.7-1.2.3-.4.6-.7.9-1l.9-.9c.1.1.1.1.1 0 0 0 .1-.1.2 0 0-.1 0-.2.1-.3.1-.1.1-.2.2-.3.1-.1.2-.2.3-.2s.2-.1.3-.1c.1-.2.3-.4.5-.6.2-.2.5-.3.7-.5.3-.2.5-.4.7-.6.2-.2.3-.5.4-.8h.4c-.1-.2-.2-.4-.2-.7 0-.2.1-.4.2-.6.1-.1.3-.2.6-.3.2 0 .5 0 .8.2.1 0 .2 0 .3-.1 0-.1.1-.1.2-.1.6.2 1 .5 1.5.9.4.3.8.7 1.2 1.2l-.1.1s-.1 0-.1.1v.1s0 .1.1.1c.4.5.8 1.1 1.1 1.6l.9 1.8c.1.5.1 1 .1 1.5s-.1 1-.2 1.5l-.3.6c-.1.2-.3.3-.4.5-.1.2-.3.3-.4.5s-.3.3-.4.5l.3.7c0 .1 0 .2.1.3 0 .1.1.2.1.3 0 .1.1.2.1.3v.3c0 .1.1.1.2.1l-.1.1c0 .1 0 .1.2.1 0 .1-.1.3-.2.5s-.2.3-.3.5c-.1.1-.3.3-.5.4-.2.1-.4.2-.6.2-.2-.1-.4-.2-.6-.4-.1-.1-.3-.3-.5-.4l-.7-1.6c-.9.4-1.8.7-2.8 1-1 .2-2 .4-3.2.5-.6-.2-1.1-.4-1.6-.7-.5-.3-.9-.7-1.2-1.2zm4.6-4.7c-.5.4-1 .9-1.4 1.5s-.8 1.2-1 1.9c.1.1.2.1.4.1s.3 0 .4.1c.7-.2 1.4-.4 2.1-.5.7-.2 1.4-.4 2.1-.7-.3-.3-.5-.7-.8-1s-.4-.6-.6-.9c0-.1.1-.2.1-.3 0-.1.1-.2.1-.3 0-.1.1-.2.2-.3.1-.1.2-.1.3-.1.2.1.5.1.8.1.3 0 .6 0 .8.1l.6.6c.2.2.4.5.5.7.3-.2.5-.5.7-.8.2-.3.3-.6.4-1l-.3-.6c-.1-.2-.2-.5-.4-.7-.1-.2-.3-.4-.5-.6s-.4-.3-.6-.4h-.2c0 .1-.1.1-.2 0-.6.5-1.3.9-1.9 1.4s-1 1.1-1.6 1.7zM146.2 33.4c0-.2-.1-.3-.1-.3.1-.2.1-.4.2-.6 0-.2.1-.4.1-.6 0-.2.1-.3.1-.5 0-.1.1-.3.1-.4.2 0 .4-.1.5-.3s.2-.2.2-.3c.2 0 .4 0 .4.1.1.1.1.2.2.4.1.1.1.3.3.4.1.1.3.3.5.4 0 .1.1.3.1.4 0 .1.1.2.2.4.1.3.2.5.3.8s.1.5.2.8c-.1.3-.3.6-.3 1s-.1.7-.1 1.1v1.1c0 .3.1.6.2.8l.1.3h.4c.4-.1.8-.2 1.2-.4s.7-.3 1-.5c.3-.2.6-.4.9-.7.3-.2.6-.5.9-.9.3-.3.5-.7.8-1.1.2-.4.4-.9.6-1.3.1-.5.3-.9.4-1.4.1-.5.1-.9.2-1.3.2-.1.4-.3.4-.5l-.1-.2c0-.1-.1-.1 0-.2v-.2c.1-.3.3-.5.6-.6.2.1.4.3.6.5s.4.3.5.5c0 .3.1.6.1.8.1.2.1.5.2.7.1.2.2.4.2.6.1.2.1.4.1.7-.1.4-.2.7-.3 1-.1.3-.1.7-.2 1v.2c-.2.4-.4.8-.6 1.1-.2.4-.4.7-.5 1-.1.1-.1.2-.2.3-.1.1-.1.2-.2.3 0 0-.1.1-.1.2s-.3-.1-.3 0l-.4-.2-.1.6-.3.1-.2.3c-.3.5-.6.9-.9 1.2-.3.3-.6.6-1 .9-.4.3-.8.5-1.3.7s-1 .5-1.6.7c-.2 0-.4-.1-.6-.1h-1c-.2 0-.3 0-.5-.1 0-.1-.1-.2-.2-.2s-.2-.1-.2-.1c-.2-.1-.4-.3-.5-.5s-.2-.5-.4-.7c-.1-.1-.1-.3-.2-.4-.1-.1-.1-.3-.2-.4l.4-.1-.5-.5-.1-.1-.1-.1v-.3c0-1-.1-1.9-.1-2.7s-.1-1.9.2-2.6z"/><path class="st2" d="M157.2 42.5c-.2-.1-.3-.2-.4-.4-.1-.2-.2-.3-.3-.5-.1-.2-.1-.4-.2-.6 0-.2-.1-.4-.1-.6 0-.2 0-.3.1-.4.1-.1.1-.2.2-.2.3 0 .5 0 .8-.1.2 0 .4-.1.7-.1s.4-.1.6-.1h.7c.2-.4.3-.7.5-1.1.2-.3.3-.7.5-1 .1-.3.2-.6.3-.8.1-.3.2-.5.3-.7.1-.2.2-.5.3-.7.1-.2.1-.5.2-.7.1-.4.3-.8.4-1.2.1-.4.2-.8.3-1.3-.5.1-.8.1-1.1.2-.3.1-.5.1-.6.2-.2 0-.4-.1-.6-.1s-.2-.2-.3-.3c-.1-.1-.2-.3-.2-.4-.1-.2-.1-.3-.2-.5 0-.1.1-.3 0-.5 0-.2-.1-.4-.2-.5.1 0 .2-.1.2-.2s.1-.2 0-.3c.2-.1.4-.1.6-.1.2 0 .5 0 .7-.1.2 0 .4 0 .6-.1.2 0 .4-.1.5-.2.6 0 1.3 0 2-.1.7 0 1.3-.1 1.9-.1.2.1.5.1.7.1.3 0 .6 0 .8.1.3 0 .5.1.8.2.2.1.4.3.5.6.2 0 .3.1.4.1.1.1.1.2.2.3v.7c-.2.1-.4.3-.7.4-.3.1-.6.2-1 .2-.3.1-.7.1-1.1.1h-1.1c-.1.4-.2.9-.3 1.4-.2.5-.3 1.1-.5 1.6s-.3 1-.4 1.4-.2.7-.2.8c-.1.3-.2.5-.3.7s-.2.4-.2.5c-.1.2-.1.3-.2.5s-.1.3-.2.5h1.2c0 .1.1.2.2.3.1 0 .2.1.3.1.1 0 .2.1.3.1.1.1.1.1.1.3.2.1.4.2.4.3.1.1.1.2 0 .4s-.1.3-.2.4c-.1.1-.2.3-.3.4-.1 0-.2 0-.3.1l-.3.3c-.3 0-.7-.1-1 0-.3 0-.6.1-.9.1-.1 0-.1 0-.1.1v.1c-.4-.1-.8-.2-1.1-.1-.4 0-.8.1-1.2.2l-1.2.3c-.4.1-.8 0-1.3 0zm11.3-18.1c-.1 0-.3.1-.5.3-.2.1-.5.4-.9.7l-.6.6c-.3.2-.5.5-.8.7l-.9.6c-.3.2-.6.3-.9.3l-.3-.3c-.1-.1-.2-.2-.2-.3s-.1-.2-.1-.3c0-.1 0-.2.1-.3-.2-.3-.2-.4-.2-.6s.1-.2.2-.3l.3-.3c.1-.1.2-.2.3-.4l.9-.9c.3-.3.6-.6.9-1 .1 0 .2-.1.4-.2s.2-.2.3-.3l.3-.3c.1-.1.2-.2.4-.3 0 .1.1.1.2.2s.2.1.3 0c0 .1.1.3.2.4l.3.3c.1.2.1.3.2.5.1.1.1.3.2.4s.1.3 0 .4 0 .3-.1.4z"/></g></svg>