<svg id="Capa_1" xmlns="http://www.w3.org/2000/svg" width="400" height="400" viewBox="106 196 400 400"><path fill="#FFF" d="M175.858 457.817s3.558-210.783 5.337-218.788c1.778-8.004 11.562-24.013 33.796-18.677s24.903 16.898 24.903 38.243v87.159s10.056-15.119 33.488-14.229c23.432.89 32.617 15.119 32.617 15.119s14.461-16.898 32.877-16.898 33.125 19.214 33.125 19.214V244.365s4.801-26.146 32.399-25.079c27.6 1.066 32.49 22.412 33.603 32.194 1.112 9.783 4.67 192.997-4.225 224.125C424.886 506.733 393.45 578.773 306 578.773c-87.451 0-130.723-88.043-130.142-120.956z"/><path d="M387.568 249.798c0-9.283 7.545-16.837 16.818-16.837 9.288 0 16.846 7.554 16.846 16.837v149.383h31.961V249.798c0-26.906-21.896-48.798-48.807-48.798-26.896 0-48.779 21.892-48.776 48.798v90.812l31.958 16.278v-107.09zM290.216 369.54v65.461c0 9.284-7.545 16.837-16.818 16.837-9.288 0-16.846-7.553-16.846-16.837V369.54h-31.961v65.461c0 26.907 21.896 48.798 48.807 48.798 26.896 0 48.779-21.891 48.776-48.798V369.54h-31.958z"/><path d="M355.71 369.54v65.461c0 9.284-7.545 16.837-16.817 16.837-9.289 0-16.846-7.553-16.846-16.837V369.54h-31.962v65.461c0 26.907 21.896 48.798 48.808 48.798 26.896 0 48.779-21.891 48.776-48.798V369.54H355.71z"/><path fill="#FFF" d="M437.87 417.197h-98.993S306 426.007 306 447.972s10.622 35.826 32.893 35.826h94.941s5.045-48.584 4.036-66.601z"/><path d="M426.237 464.806h-87.354c-9.283 0-16.836-7.545-16.836-16.818 0-9.288 7.553-16.845 16.836-16.845h87.354v-31.962h-87.354c-26.906 0-48.798 21.896-48.798 48.807 0 26.896 21.892 48.779 48.798 48.777h87.354v-31.959z"/><path d="M421.232 318.612v45.626c0 .055.004.108.004.164v79.424h-.004c0 63.528-51.696 115.213-115.239 115.213-63.536 0-115.226-51.685-115.226-115.213V249.798c0-9.283 7.558-16.837 16.846-16.837 9.272 0 16.818 7.554 16.818 16.837v149.655c0 8.826 7.154 15.98 15.98 15.98 8.825 0 15.98-7.154 15.98-15.98v-35.05c0-9.273 7.54-16.818 16.813-16.818 9.269 0 16.809 7.545 16.809 16.818v35.052c0 8.826 7.155 15.98 15.981 15.98 8.825 0 15.98-7.154 15.98-15.98v-35.052c0-9.273 7.56-16.818 16.85-16.818 9.271 0 16.813 7.545 16.813 16.818v35.052c0 8.826 7.155 15.98 15.98 15.98s15.98-7.154 15.98-15.98V318.625a48.84 48.84 0 0 0-15.982 9.701c-8.668-7.886-20.181-12.701-32.794-12.701-12.627 0-24.149 4.817-32.824 12.705-8.668-7.888-20.181-12.705-32.796-12.705a48.582 48.582 0 0 0-16.814 2.985v-68.811C256.393 222.892 234.51 201 207.613 201c-26.911 0-48.807 21.892-48.807 48.798v194.028c0 81.153 66.027 147.174 147.187 147.174 81.166 0 147.2-66.021 147.2-147.174v-79.424c0-20.99-13.326-38.923-31.961-45.79z"/></svg>