<?xml version="1.0" standalone="no"?>
<!DOCTYPE svg PUBLIC "-//W3C//DTD SVG 20010904//EN"
 "http://www.w3.org/TR/2001/REC-SVG-20010904/DTD/svg10.dtd">
<svg version="1.0" xmlns="http://www.w3.org/2000/svg"
 width="1667.000000pt" height="1667.000000pt" viewBox="0 0 1667.000000 1667.000000"
 preserveAspectRatio="xMidYMid meet">
<metadata>
Created by potrace 1.11, written by Peter Selinger 2001-2013
</metadata>
<g transform="translate(0.000000,1667.000000) scale(0.100000,-0.100000)"
fill="#000000" stroke="none">
<path d="M7965 15014 c-1047 -45 -1811 -194 -2610 -509 -332 -131 -608 -262
-1231 -583 -598 -307 -923 -457 -1294 -595 -613 -228 -1289 -371 -2020 -427
-184 -14 -549 -30 -692 -30 l-118 0 0 -997 0 -996 298 6 c999 21 1849 180
2667 500 247 96 531 226 885 405 1074 543 1129 570 1475 709 198 80 581 208
780 262 454 121 938 200 1495 243 226 18 1234 18 1465 0 1175 -90 1987 -321
3080 -873 1131 -571 1159 -585 1510 -726 811 -328 1702 -498 2713 -520 l292
-6 0 996 0 997 -117 0 c-271 0 -699 26 -1008 61 -955 107 -1717 342 -2670 825
-846 428 -1088 548 -1225 609 -875 385 -1635 567 -2650 635 -157 10 -878 20
-1025 14z"/>
<path d="M7895 10400 c-1022 -44 -1844 -216 -2662 -556 -245 -102 -423 -185
-743 -347 -764 -388 -1027 -518 -1170 -581 -1016 -449 -1900 -630 -3215 -659
l-100 -2 -3 -994 -2 -994 312 6 c992 20 1842 180 2658 502 351 138 618 264
1255 592 539 277 787 393 1135 533 596 238 1259 396 1950 464 364 36 481 41
1025 41 544 0 661 -5 1025 -41 837 -83 1564 -279 2345 -632 189 -86 371 -177
985 -489 540 -276 844 -412 1223 -549 723 -261 1543 -403 2440 -421 l307 -6
-2 994 -3 994 -100 2 c-1312 29 -2185 206 -3195 651 -183 81 -397 187 -1170
579 -374 190 -562 277 -845 390 -739 297 -1472 456 -2375 513 -227 14 -845 20
-1075 10z"/>
<path d="M7935 5789 c-944 -33 -1746 -186 -2510 -479 -324 -125 -663 -282
-1149 -533 -374 -193 -744 -376 -921 -456 -963 -436 -1893 -638 -3080 -669
l-270 -7 0 -995 0 -995 195 3 c1091 16 1986 185 2850 537 277 113 484 211
1135 540 822 415 1103 541 1531 684 790 263 1600 381 2619 381 1323 0 2307
-198 3360 -675 94 -42 454 -220 800 -395 347 -175 707 -353 800 -395 1010
-458 1908 -650 3178 -679 l187 -4 -2 997 -3 996 -270 7 c-1188 31 -2099 229
-3080 668 -77 35 -331 160 -565 278 -938 475 -1060 534 -1391 667 -994 402
-2097 571 -3414 524z"/>
</g>
</svg>
