<?xml version="1.0" encoding="utf-8"?>
<!-- Generator: Adobe Illustrator 15.0.0, SVG Export Plug-In . SVG Version: 6.00 Build 0)  -->
<!DOCTYPE svg PUBLIC "-//W3C//DTD SVG 1.1//EN" "http://www.w3.org/Graphics/SVG/1.1/DTD/svg11.dtd">
<svg version="1.1" id="Layer_1" xmlns="http://www.w3.org/2000/svg" xmlns:xlink="http://www.w3.org/1999/xlink" x="0px" y="0px"
	 width="500px" height="500px" viewBox="150 50 500 500" enable-background="new 150 50 500 500" xml:space="preserve">
<g>
	<g enable-background="new    ">
		<path fill="#3D3E4E" d="M194.773,287.64c-0.99-0.75-1.801-1.69-2.432-2.817c-0.633-1.126-1.127-2.321-1.485-3.585
			c-0.358-1.262-0.598-2.568-0.717-3.918c-0.12-1.348-0.161-2.637-0.127-3.866c0.307-0.922,0.682-1.767,1.126-2.535
			c0.443-0.768,0.938-1.502,1.485-2.202c0.545-0.699,1.118-1.365,1.715-1.998c0.597-0.631,1.186-1.271,1.767-1.92
			c0.205,0,0.392,0.051,0.563,0.154c0.136-0.375,0.341-0.699,0.615-0.973c0.273-0.273,0.563-0.52,0.871-0.743
			c0.308-0.222,0.615-0.443,0.922-0.666c0.308-0.222,0.563-0.487,0.769-0.794c0.853-0.205,1.613-0.494,2.279-0.871
			c0.666-0.375,1.306-0.784,1.92-1.229c0.614-0.443,1.246-0.853,1.895-1.229c0.647-0.375,1.399-0.666,2.253-0.871
			c0.307-0.341,0.691-0.631,1.152-0.871c0.461-0.238,0.922-0.461,1.383-0.666c0.461-0.205,0.904-0.427,1.332-0.666
			c0.426-0.238,0.776-0.563,1.049-0.973c0.205,0.274,0.495,0.368,0.871,0.282c0.375-0.085,0.717-0.18,1.024-0.282
			c0.205-0.033,0.375,0,0.512,0.103c0.136,0.103,0.264,0.214,0.384,0.333c0.119,0.121,0.221,0.198,0.308,0.231
			c0.084,0.034,0.179-0.068,0.281-0.308c0.273,0.035,0.35,0.154,0.231,0.359c-0.121,0.205-0.198,0.341-0.231,0.41
			c0.34-0.068,0.623-0.008,0.845,0.179c0.222,0.188,0.571,0.316,1.05,0.385c0.17,0.171,0.221,0.307,0.154,0.41
			c-0.069,0.103-0.121,0.274-0.154,0.512c1.229,0.376,2.014,0.965,2.356,1.767c0.34,0.803,0.375,1.639,0.103,2.51
			c-0.274,0.871-0.777,1.673-1.511,2.407c-0.734,0.735-1.545,1.222-2.433,1.459c-1.059,0.274-2.041,0.547-2.944,0.82
			c-0.905,0.274-1.776,0.581-2.612,0.922c-0.837,0.341-1.622,0.742-2.356,1.203c-0.734,0.461-1.375,0.999-1.92,1.613
			c-0.956,0.274-1.818,0.649-2.586,1.126c-0.769,0.479-1.485,1.008-2.151,1.588c-0.666,0.582-1.306,1.187-1.92,1.818
			c-0.614,0.633-1.229,1.255-1.844,1.87c0,0.581-0.102,1.024-0.307,1.332s-0.428,0.615-0.666,0.922
			c0.068,0.649,0.213,1.203,0.436,1.665c0.221,0.461,0.452,0.931,0.691,1.408c2.731,0.819,5.625,1.324,8.681,1.511
			c3.054,0.188,6.085,0.3,9.09,0.333c0.308,0.41,0.657,0.793,1.05,1.152c0.392,0.358,0.75,0.726,1.076,1.102
			c0.324,0.376,0.58,0.812,0.768,1.306c0.188,0.495,0.23,1.084,0.128,1.767c-0.582,0.582-1.212,1.136-1.895,1.665
			c-0.684,0.53-1.366,1.049-2.049,1.562c-0.307,0.035-0.675,0.035-1.101,0c-0.428-0.033-0.871-0.051-1.332-0.051
			s-0.922,0.026-1.383,0.077s-0.896,0.162-1.306,0.333c-2.151-0.069-4.354-0.333-6.607-0.794c-2.253-0.461-4.336-1.015-6.248-1.665
			c-0.376-0.443-0.768-0.862-1.178-1.254C196.003,288.093,195.457,287.811,194.773,287.64z"/>
		<path fill="#3D3E4E" d="M250.699,262.955c0.068,0.751,0.188,1.401,0.358,1.946c0.171,0.546,0.359,1.076,0.563,1.587
			c0.17,0.479,0.333,0.947,0.487,1.408c0.154,0.461,0.264,1.017,0.333,1.665c-0.273,0.889-0.47,1.708-0.588,2.458
			c-0.121,0.751-0.249,1.536-0.384,2.356c-0.547,1.196-1.076,2.253-1.587,3.175c-0.512,0.922-0.922,1.725-1.229,2.407
			c-0.172,0.171-0.316,0.367-0.436,0.589c-0.121,0.223-0.249,0.453-0.384,0.691c-0.069,0.103-0.153,0.256-0.256,0.461
			s-0.188,0.342-0.256,0.41l-1.024-0.358l-0.205,1.28l-0.717,0.205l-0.512,0.614c-0.649,1.127-1.332,2.074-2.049,2.842
			c-0.717,0.769-1.529,1.452-2.433,2.049c-0.905,0.598-1.929,1.152-3.073,1.664c-1.145,0.512-2.433,1.076-3.867,1.69
			c-0.581-0.068-1.084-0.11-1.511-0.128c-0.428-0.017-0.829-0.042-1.203-0.077c-0.649,0-1.452-0.051-2.407-0.153
			c-0.103-0.272-0.256-0.461-0.461-0.563c-0.205-0.103-0.393-0.154-0.563-0.154c-0.582-0.272-1.017-0.673-1.306-1.203
			c-0.291-0.529-0.572-1.102-0.845-1.716c-0.172-0.375-0.342-0.725-0.512-1.05c-0.172-0.324-0.358-0.657-0.563-0.999l0.871-0.256
			l-1.126-1.229c-0.069-0.103-0.154-0.196-0.256-0.282c-0.103-0.084-0.188-0.179-0.256-0.281l-0.051-0.819
			c-0.103-2.356-0.146-4.515-0.128-6.479c0.016-1.963,0.281-3.713,0.793-5.25v-0.563c0.103-0.75,0.205-1.374,0.308-1.869
			c0.102-0.494,0.187-0.964,0.256-1.408c0.103-0.75,0.256-1.451,0.461-2.1c0.478-0.102,0.836-0.298,1.076-0.589
			c0.238-0.29,0.443-0.555,0.615-0.794c0.478-0.033,0.801,0.035,0.973,0.205c0.171,0.172,0.341,0.444,0.512,0.819
			c0.17,0.308,0.384,0.649,0.64,1.024c0.256,0.376,0.641,0.666,1.153,0.871c0.067,0.274,0.161,0.556,0.281,0.845
			c0.119,0.291,0.247,0.607,0.384,0.948c0.272,0.581,0.52,1.187,0.743,1.818c0.222,0.632,0.349,1.238,0.384,1.818
			c-0.342,0.649-0.607,1.401-0.794,2.253c-0.188,0.854-0.307,1.715-0.358,2.586s-0.034,1.708,0.051,2.51
			c0.084,0.803,0.231,1.478,0.436,2.023l0.308,0.666l0.87-0.103c1.024-0.272,1.954-0.571,2.792-0.896
			c0.835-0.324,1.613-0.708,2.33-1.152c0.717-0.443,1.399-0.964,2.048-1.562c0.648-0.597,1.332-1.288,2.048-2.074
			c0.717-0.785,1.339-1.681,1.87-2.689c0.528-1.006,0.973-2.056,1.332-3.149c0.358-1.092,0.631-2.176,0.819-3.252
			c0.188-1.076,0.315-2.091,0.385-3.047c0.58-0.205,0.871-0.614,0.871-1.229l-0.103-0.563c-0.137-0.205-0.137-0.443,0-0.717
			c0.205-0.648,0.682-1.143,1.434-1.485c0.545,0.342,1.032,0.717,1.459,1.127C249.922,262.135,250.323,262.545,250.699,262.955z"/>
		<path fill="#3D3E4E" d="M276.665,287.793c-0.205,0.581-0.504,1.17-0.896,1.767c-0.393,0.598-0.854,1.127-1.383,1.588
			c-0.53,0.461-1.119,0.845-1.767,1.152c-0.649,0.308-1.332,0.478-2.048,0.512c-0.444-0.103-0.743-0.214-0.896-0.333
			c-0.154-0.121-0.316-0.231-0.486-0.333c-0.103-0.068-0.198-0.128-0.282-0.179c-0.085-0.051-0.163-0.093-0.23-0.128l-0.615-0.256
			l0.205-0.666c0.067-0.272,0.051-0.486-0.051-0.64c-0.103-0.154-0.307-0.367-0.615-0.641c-0.103-0.103-0.205-0.205-0.307-0.307
			c-0.103-0.103-0.188-0.205-0.256-0.308l-0.871-0.973l1.383-0.358c0.853-0.238,1.425-0.546,1.716-0.922
			c0.289-0.375,0.4-1.007,0.333-1.895c-0.684-0.136-1.254-0.153-1.715-0.051c-0.461,0.103-0.931,0.223-1.408,0.359
			c-0.615,0.171-1.238,0.316-1.87,0.435c-0.632,0.12-1.324,0.179-2.074,0.179c-0.273,0-0.53-0.008-0.768-0.026
			c-0.239-0.016-0.496-0.042-0.769-0.077l-0.512-0.102c-0.069-0.375-0.137-0.589-0.205-0.641c-0.069-0.051-0.137-0.11-0.205-0.179
			c-0.171-0.17-0.351-0.4-0.538-0.691c-0.188-0.29-0.23-0.657-0.127-1.101c-0.172-0.307-0.274-0.614-0.308-0.922
			c-0.205,0.41-0.358,0.837-0.461,1.28l-0.205,0.512l-0.512,0.103c-0.069,0.035-0.121,0.111-0.154,0.23
			c-0.035,0.12-0.051,0.214-0.051,0.282l-0.256,0.871c-0.069,0.069-0.137,0.128-0.205,0.179c-0.069,0.051-0.137,0.111-0.205,0.179
			c-0.069,0.308-0.154,0.615-0.256,0.922c-0.103,0.307-0.205,0.598-0.307,0.871c-0.172,0.444-0.316,0.879-0.436,1.306
			c-0.12,0.428-0.162,0.845-0.128,1.254l-0.205,0.563c-0.172,0.205-0.359,0.368-0.563,0.487c-0.205,0.12-0.41,0.23-0.615,0.333
			c-0.069,0.069-0.163,0.128-0.281,0.18c-0.121,0.051-0.214,0.095-0.282,0.128l-0.153,0.563l-0.615,0.103
			c-0.376,0.068-0.64,0.119-0.793,0.154c-0.154,0.033-0.333,0.051-0.538,0.051l-0.512-0.051c-0.376-0.308-0.666-0.554-0.871-0.743
			c-0.205-0.187-0.444-0.366-0.717-0.538c-0.307-0.41-0.478-0.717-0.512-0.922c-0.034-0.205-0.068-0.392-0.103-0.563
			c-0.068-0.205-0.11-0.375-0.128-0.512c-0.017-0.136-0.059-0.238-0.128-0.308l-0.666-0.614l0.563-0.46l0.051-0.871
			c0.684-1.742,1.408-3.414,2.177-5.02c0.768-1.604,1.562-3.243,2.381-4.916c0.273-0.546,0.538-1.092,0.794-1.639
			c0.256-0.545,0.52-1.092,0.793-1.639c-0.034-0.103-0.051-0.222-0.051-0.358c0-0.136,0.033-0.29,0.103-0.461
			c0.375-0.58,0.683-1.101,0.922-1.562c0.238-0.461,0.477-0.93,0.717-1.409c0.272-0.58,0.555-1.143,0.845-1.69
			c0.289-0.545,0.657-1.109,1.101-1.69l0.82-0.358c0.102-0.033,0.221-0.077,0.358-0.128c0.135-0.051,0.289-0.077,0.46-0.077
			l0.768,0.103c0.955-0.443,1.792-1.066,2.51-1.87c0.717-0.801,1.451-1.767,2.202-2.894l0.512-0.717l0.666,0.41
			c0.17,0.103,0.41,0.197,0.717,0.282c0.307,0.086,0.631,0.179,0.973,0.282c0.614,0.137,1.194,0.291,1.741,0.461
			c0.546,0.171,0.99,0.428,1.332,0.768c0.205,0.546,0.324,0.957,0.359,1.229c0.033,0.274,0.084,0.547,0.153,0.82
			c0.103,0.581,0.196,1.161,0.282,1.741c0.084,0.581,0.145,1.229,0.179,1.946c0.171,0.581,0.315,1.152,0.436,1.715
			c0.119,0.563,0.23,1.136,0.333,1.715c0.17,0.82,0.34,1.614,0.512,2.381c0.17,0.769,0.392,1.495,0.666,2.177
			c0.273,0,0.443,0.018,0.512,0.051c0.17-0.068,0.35-0.12,0.538-0.154c0.188-0.034,0.401-0.068,0.641-0.103l0.563-0.051l0.205,0.512
			c0.033,0.171,0.205,0.342,0.512,0.512c0.443,0.035,0.768,0.128,0.973,0.282c0.204,0.153,0.392,0.316,0.563,0.487
			c0.136,0.137,0.273,0.239,0.41,0.307l0.768,0.307l-0.41,0.769c-0.342,0.614-0.828,1.204-1.459,1.767
			c-0.633,0.563-1.341,1.033-2.125,1.408c0.033,0.205,0.058,0.402,0.076,0.589c0.017,0.188,0.059,0.384,0.128,0.588
			c0.103,0.582,0.187,1.178,0.256,1.792c0.067,0.615,0.067,1.247,0,1.895L276.665,287.793z M261.863,278.933
			c1.024-0.067,1.954-0.145,2.791-0.23c0.836-0.084,1.768-0.23,2.792-0.435c-0.239-1.024-0.496-2.091-0.768-3.201
			c-0.274-1.109-0.563-2.209-0.871-3.303l-0.307,0.512c-0.684,0.717-1.341,1.52-1.972,2.407c-0.633,0.889-1.171,1.725-1.614,2.51
			c-0.205,0.307-0.41,0.614-0.614,0.922c-0.205,0.307-0.393,0.614-0.563,0.921c0.205-0.033,0.4-0.051,0.589-0.051
			C261.513,278.984,261.692,278.968,261.863,278.933z"/>
		<path fill="#3D3E4E" d="M290.543,282.774c-0.307,0.069-0.53,0.248-0.666,0.538c-0.137,0.29-0.265,0.588-0.384,0.896
			c-0.12,0.307-0.24,0.588-0.358,0.845c-0.12,0.256-0.299,0.384-0.538,0.384c-0.034,0.273-0.127,0.512-0.281,0.717
			c-0.154,0.205-0.299,0.419-0.435,0.64c-0.137,0.223-0.24,0.461-0.307,0.717c-0.069,0.256-0.035,0.555,0.102,0.896
			c-0.274,0.204-0.444,0.495-0.512,0.87c-0.069,0.376-0.146,0.735-0.23,1.076c-0.085,0.342-0.23,0.632-0.435,0.871
			c-0.205,0.24-0.582,0.342-1.127,0.307c-0.103,0.137-0.12,0.223-0.051,0.256c0.068,0.035,0.119,0.154,0.154,0.359
			c-0.376-0.068-0.658-0.043-0.845,0.077c-0.188,0.119-0.418,0.196-0.691,0.23c-0.649-0.205-1.187-0.563-1.613-1.076
			c-0.428-0.512-0.803-1.083-1.127-1.715c-0.325-0.631-0.615-1.271-0.871-1.92c-0.256-0.648-0.503-1.211-0.743-1.69
			c0.102-0.375,0.12-0.743,0.051-1.102c-0.067-0.358-0.187-0.657-0.358-0.896c1.673-3.55,3.5-7.34,5.48-11.37
			c1.979-4.028,3.857-8.006,5.633-11.933c0.785,0.307,1.562,0.658,2.331,1.05c0.768,0.393,1.467,0.845,2.099,1.357
			c0.631,0.512,1.169,1.101,1.614,1.767c0.443,0.666,0.733,1.409,0.871,2.228c-0.069,0.205-0.146,0.281-0.231,0.23
			c-0.085-0.051-0.163-0.025-0.23,0.077c0.136,0.171,0.212,0.291,0.23,0.359c0.017,0.068,0.017,0.137,0,0.205
			c-0.018,0.069-0.025,0.162-0.025,0.282c0,0.12,0.051,0.282,0.154,0.487c-0.137-0.034-0.23-0.017-0.282,0.051
			c-0.051,0.069-0.163,0.069-0.333,0c0.136,0.376,0.179,0.684,0.128,0.921c-0.051,0.24-0.128,0.454-0.23,0.641
			c-0.103,0.188-0.189,0.393-0.256,0.615c-0.069,0.223-0.051,0.504,0.051,0.845c-0.103,0-0.18,0.026-0.23,0.077
			c-0.051,0.051-0.095,0.103-0.128,0.153c-0.035,0.051-0.077,0.103-0.128,0.154s-0.128,0.061-0.23,0.025
			c0.102,0.751,0.135,1.503,0.102,2.253c-0.035,0.751-0.06,1.511-0.077,2.279c-0.017,0.769-0.009,1.571,0.026,2.407
			c0.033,0.837,0.154,1.699,0.359,2.586c1.229-0.717,2.209-1.639,2.944-2.766c0.733-1.126,1.332-2.389,1.793-3.79
			c0.461-1.4,0.81-2.901,1.049-4.507c0.238-1.604,0.494-3.243,0.769-4.916c0.307-0.308,0.545-0.683,0.717-1.127
			c0.17-0.443,0.324-0.913,0.461-1.408c0.136-0.495,0.272-0.99,0.41-1.485c0.136-0.494,0.308-0.948,0.512-1.357
			c0.512,0.069,0.947,0.231,1.306,0.487c0.359,0.256,0.692,0.53,0.999,0.819c0.308,0.291,0.631,0.563,0.973,0.82
			c0.341,0.256,0.769,0.418,1.281,0.486c0.41,0.582,0.785,1.145,1.126,1.69c0.34,0.546,0.563,1.127,0.666,1.741
			c-0.172,0.274-0.3,0.581-0.384,0.922c-0.086,0.342-0.179,0.684-0.282,1.024c-0.103,0.342-0.239,0.658-0.41,0.947
			c-0.172,0.291-0.41,0.538-0.717,0.743c-0.103,0.889-0.23,1.699-0.384,2.433c-0.153,0.735-0.307,1.459-0.461,2.177
			c-0.153,0.717-0.282,1.459-0.384,2.228s-0.137,1.614-0.103,2.535c-0.273,0.786-0.563,1.623-0.871,2.509
			c-0.307,0.889-0.546,1.69-0.716,2.407c-0.547,0.444-0.973,0.973-1.281,1.588c-0.307,0.615-0.632,1.229-0.973,1.844
			c-0.138,0.137-0.223,0.171-0.256,0.103c-0.035-0.068-0.154-0.12-0.358-0.154c0.033,0.137,0.033,0.239,0,0.307
			c-0.035,0.069-0.077,0.128-0.128,0.179s-0.085,0.128-0.103,0.23c-0.018,0.103,0.008,0.24,0.077,0.41
			c-0.479,0.205-0.905,0.496-1.28,0.871c-0.376,0.376-0.777,0.717-1.204,1.024c-0.428,0.307-0.94,0.512-1.536,0.614
			c-0.598,0.103-1.375-0.016-2.33-0.358c-1.401-1.024-2.638-2.202-3.713-3.533C292.105,286.206,291.226,284.618,290.543,282.774z"/>
		<path fill="#3D3E4E" d="M334.895,278.268c-0.035,0.171-0.069,0.316-0.103,0.435c-0.035,0.121-0.069,0.23-0.103,0.333
			c-0.035,0.102-0.051,0.23-0.051,0.384c0,0.153,0,0.351,0,0.589c-1.024,1.811-2.313,3.329-3.867,4.558
			c-1.554,1.229-3.261,2.313-5.121,3.252c-1.862,0.94-3.798,1.792-5.812,2.561c-2.015,0.769-3.978,1.597-5.89,2.484
			c-0.819-0.205-1.443-0.546-1.87-1.024c-0.427-0.477-0.751-1.031-0.973-1.664c-0.223-0.631-0.376-1.332-0.461-2.1
			c-0.086-0.768-0.163-1.562-0.23-2.381c0.103-0.375,0.247-0.691,0.436-0.948c0.187-0.256,0.281-0.622,0.281-1.101
			c0.273-0.888,0.545-1.758,0.82-2.612c0.273-0.853,0.443-1.723,0.512-2.611c0.103-0.273,0.29-0.461,0.563-0.563
			c0.17-1.639,0.179-3.304,0.025-4.993c-0.153-1.69-0.435-3.269-0.845-4.737c0.033-0.341,0.077-0.589,0.128-0.743
			c0.051-0.153,0.042-0.264-0.025-0.333c-0.035-0.273,0.059-0.41,0.281-0.41c0.222,0,0.453,0,0.692,0
			c0-0.512-0.095-1.024-0.282-1.537c-0.188-0.512-0.367-1.092-0.538-1.741c0.238-0.512,0.392-1.015,0.461-1.511
			c0.067-0.494,0.222-0.93,0.461-1.306c1.844,0.582,3.61,1.28,5.3,2.1c1.69,0.819,3.354,1.417,4.994,1.792
			c1.229,0.889,2.491,1.767,3.789,2.637c1.297,0.871,2.476,1.827,3.534,2.868c1.058,1.042,1.946,2.228,2.663,3.559
			C334.382,274.836,334.792,276.424,334.895,278.268z M322.757,281.084c0.717-0.272,1.425-0.563,2.125-0.871
			c0.699-0.307,1.349-0.657,1.946-1.05c0.597-0.392,1.134-0.845,1.613-1.357c0.478-0.512,0.871-1.126,1.178-1.844
			c-0.205-0.41-0.479-0.776-0.819-1.101c-0.342-0.324-0.684-0.631-1.024-0.921c-0.342-0.29-0.674-0.589-0.999-0.897
			c-0.325-0.307-0.589-0.682-0.793-1.126c-0.445-0.068-0.838-0.196-1.178-0.384c-0.342-0.187-0.675-0.375-0.999-0.563
			c-0.325-0.187-0.666-0.366-1.024-0.538c-0.358-0.17-0.776-0.272-1.254-0.307c-0.751-0.375-1.426-0.648-2.023-0.82
			c-0.598-0.17-1.05-0.392-1.357-0.665c-0.239,0-0.427,0.051-0.563,0.154c0.341,1.298,0.597,2.518,0.768,3.662
			c0.17,1.144,0.264,2.288,0.282,3.431c0.017,1.145-0.044,2.314-0.179,3.508c-0.137,1.196-0.325,2.493-0.563,3.893
			c0.341-0.033,0.657-0.11,0.948-0.23c0.289-0.119,0.58-0.248,0.871-0.384c0.289-0.136,0.597-0.264,0.922-0.384
			c0.324-0.12,0.708-0.196,1.152-0.231c0.102-0.205,0.247-0.375,0.435-0.512C322.406,281.41,322.585,281.256,322.757,281.084z"/>
		<path fill="#3D3E4E" d="M365.571,276.731c-0.034,0.41,0,0.802,0.103,1.178c0.103,0.376,0.231,0.742,0.384,1.101
			c0.154,0.358,0.298,0.726,0.435,1.101c0.136,0.377,0.238,0.752,0.308,1.127c0.068,0.479,0.068,0.999,0,1.562
			c-0.069,0.562-0.188,1.11-0.359,1.638c-0.171,0.53-0.393,1.008-0.666,1.434c-0.274,0.428-0.598,0.743-0.973,0.948
			c-0.479,0.615-1.059,1.093-1.741,1.434c-0.684,0.342-1.315,0.752-1.895,1.229c-0.377,0.24-0.794,0.41-1.255,0.512
			s-0.93,0.205-1.408,0.308c-0.376,0.205-0.819,0.418-1.332,0.64c-0.512,0.223-1.042,0.427-1.587,0.615
			c-0.547,0.188-1.093,0.325-1.639,0.41c-0.547,0.085-1.024,0.111-1.434,0.077c-1.024,0.375-2.023,0.623-2.996,0.742
			s-2.109,0.043-3.406-0.23c-1.229,0.17-2.365,0.119-3.406-0.154c-1.042-0.274-1.964-0.708-2.765-1.306
			c-0.803-0.597-1.503-1.313-2.1-2.151c-0.598-0.836-1.084-1.716-1.459-2.638c-0.274-1.946-0.205-3.713,0.205-5.301
			c0.41-1.587,0.999-3.055,1.767-4.404c0.769-1.348,1.646-2.594,2.638-3.738c0.989-1.144,1.946-2.261,2.868-3.355
			c0.205,0.069,0.366,0.06,0.486-0.025c0.12-0.084,0.231-0.205,0.333-0.358c0.103-0.154,0.212-0.298,0.333-0.435
			c0.119-0.136,0.264-0.222,0.435-0.256c0.239-0.512,0.589-0.896,1.05-1.152c0.461-0.256,0.827-0.622,1.101-1.101
			c0.307-0.068,0.563-0.17,0.768-0.307c0.205-0.136,0.401-0.29,0.589-0.461c0.187-0.17,0.384-0.333,0.588-0.487
			c0.205-0.154,0.443-0.264,0.717-0.333v-0.563c0.615-0.273,1.066-0.589,1.357-0.947c0.289-0.359,0.641-0.794,1.05-1.307
			c0.307-0.033,0.554-0.051,0.742-0.051c0.187,0,0.469-0.033,0.845-0.103c0.272-0.478,0.52-0.836,0.743-1.076
			c0.222-0.238,0.554-0.494,0.999-0.768c0.41,0.205,0.861,0.342,1.357,0.41c0.494,0.069,0.929,0.291,1.306,0.666
			c0.033,0.342,0.136,0.607,0.307,0.794c0.17,0.188,0.359,0.358,0.563,0.512c0.205,0.153,0.401,0.316,0.589,0.486
			c0.187,0.171,0.315,0.41,0.384,0.717c0.136,0.034,0.23,0.018,0.281-0.051c0.051-0.068,0.145-0.084,0.282-0.051
			c0.103,0.479,0.221,0.794,0.358,0.947c0.136,0.154,0.272,0.454,0.41,0.896c-0.171,0.342-0.299,0.691-0.384,1.05
			c-0.085,0.358-0.299,0.624-0.64,0.794c-0.035,0.239,0.033,0.368,0.205,0.384c0.17,0.018,0.272,0.111,0.307,0.282
			c0.033,0.307-0.018,0.53-0.153,0.666c0.819,1.331,1.553,2.74,2.202,4.225C364.017,273.991,364.751,275.399,365.571,276.731z
			 M359.169,281.596c0.136-0.375,0.315-0.682,0.538-0.922c0.222-0.238,0.35-0.597,0.384-1.076c-0.172-0.272-0.274-0.486-0.307-0.64
			c-0.035-0.154-0.051-0.401-0.051-0.743c-0.751-1.058-1.401-2.193-1.946-3.406c-0.546-1.211-1.161-2.347-1.844-3.406
			c-0.069,0.137-0.188,0.274-0.358,0.41c-0.171,0.137-0.359,0.103-0.563-0.103c-0.069,0.274-0.188,0.47-0.359,0.589
			c-0.171,0.12-0.358,0.171-0.562,0.154c-0.205-0.017-0.419-0.068-0.641-0.154c-0.223-0.085-0.419-0.196-0.589-0.333
			c-0.991,0.786-1.98,1.554-2.97,2.305c-0.991,0.751-1.878,1.622-2.664,2.612c-0.137,0.069-0.222,0.095-0.256,0.077
			c-0.035-0.016-0.137,0.009-0.307,0.077c-0.274,0.649-0.607,1.238-0.999,1.767c-0.393,0.53-0.777,1.068-1.152,1.613
			c-0.376,0.547-0.701,1.126-0.973,1.741c-0.274,0.615-0.428,1.332-0.461,2.151c0.58,0.479,1.263,0.769,2.048,0.871
			c0.785,0.102,1.595,0.12,2.433,0.051c0.835-0.068,1.655-0.179,2.458-0.333s1.544-0.23,2.229-0.23
			c1.434-0.341,2.663-0.794,3.687-1.357C356.967,282.749,358.042,282.178,359.169,281.596z"/>
	</g>
	<g>
		<g enable-background="new    ">
			<path fill="#3D3E4E" d="M357.371,334.825c-0.564,2.049-1.063,3.6-1.498,4.647c-0.437,1.05-1.089,2.14-1.959,3.265
				c-0.666-0.102-1.127-0.025-1.382,0.23c-0.257,0.257-0.538,0.487-0.845,0.691c-0.461,0.103-0.794,0.103-0.999,0
				c-0.206-0.104-0.384-0.219-0.538-0.346c-0.154-0.128-0.345-0.257-0.576-0.384c-0.23-0.127-0.576-0.192-1.037-0.192
				c-0.103-0.409-0.218-0.794-0.346-1.151c-0.128-0.358-0.474-0.487-1.037-0.385c0.102-0.41,0.128-0.756,0.077-1.037
				c-0.052-0.28-0.116-0.538-0.192-0.769c-0.077-0.229-0.141-0.46-0.192-0.691c-0.052-0.23-0.026-0.524,0.077-0.883
				c-0.257,0-0.461-0.179-0.615-0.538c-0.154-0.356-0.333-0.717-0.538-1.075c0.154-0.922,0.308-1.793,0.461-2.612
				c0.154-0.818,0.346-1.586,0.577-2.304c0.23-0.718,0.422-1.434,0.576-2.151c0.153-0.717,0.077-1.46-0.231-2.229
				c0.205,0.154,0.358,0.116,0.461-0.114c0.102-0.231,0.179-0.539,0.231-0.922c0.05-0.385,0.077-0.769,0.077-1.152
				s-0.026-0.703-0.077-0.96c0.511-1.332,0.934-2.701,1.267-4.11c0.333-1.408,0.64-2.804,0.922-4.188
				c0.281-1.382,0.576-2.737,0.883-4.07c0.308-1.332,0.716-2.561,1.229-3.688c0.562-0.103,1.19-0.039,1.882,0.191
				c0.691,0.23,1.113,0.526,1.267,0.884c1.331-1.024,2.509-2.266,3.534-3.726c1.024-1.46,2.074-2.881,3.15-4.264
				c1.075-1.383,2.266-2.612,3.572-3.688c1.306-1.076,2.958-1.716,4.955-1.921c1.024,0.769,2.164,1.55,3.418,2.343
				c1.254,0.795,2.292,1.833,3.112,3.111c0.408,0.205,0.754,0.423,1.037,0.653c0.281,0.23,0.627,0.474,1.037,0.73v0.922
				c0.615,0.563,1.114,1.217,1.498,1.958c0.384,0.742,0.729,1.537,1.037,2.382c0.307,0.845,0.614,1.69,0.922,2.535
				c0.307,0.845,0.665,1.651,1.075,2.42c-0.103,0.257-0.153,0.474-0.153,0.653c0,0.181,0.039,0.372,0.115,0.576
				s0.14,0.41,0.192,0.614c0.051,0.205,0.051,0.488,0,0.845c-0.154,2.255-0.883,4.071-2.189,5.454
				c-1.306,1.383-2.881,2.523-4.724,3.419c-1.844,0.896-3.816,1.651-5.916,2.266c-2.1,0.615-3.995,1.281-5.685,1.997
				c0,0.205,0.089,0.309,0.269,0.309c0.178,0,0.242,0.128,0.192,0.383c1.229,0.77,2.202,1.384,2.919,1.844
				c0.717,0.462,1.395,0.845,2.036,1.152c0.64,0.308,1.331,0.576,2.075,0.808c0.742,0.23,1.779,0.499,3.111,0.806
				c1.331,0.308,2.368,0.551,3.111,0.73c0.742,0.18,1.421,0.334,2.036,0.461c0.615,0.128,1.241,0.229,1.882,0.307
				c0.639,0.077,1.548,0.167,2.727,0.269c0.461,0.462,0.857,1.013,1.191,1.652c0.332,0.642,0.549,1.28,0.652,1.92
				c0.102,0.643,0.128,1.257,0.077,1.844c-0.052,0.59-0.23,1.064-0.538,1.421c0.051,0.154,0.167,0.22,0.346,0.193
				c0.179-0.025,0.371-0.013,0.576,0.038c-0.307,0.205-0.564,0.46-0.768,0.768c-0.206,0.308-0.41,0.615-0.615,0.922
				c-0.206,0.308-0.436,0.576-0.691,0.808c-0.257,0.23-0.615,0.371-1.076,0.422c-1.588,0.614-3.585,0.653-5.992,0.115
				c-2.408-0.537-5.455-1.525-9.142-2.957c-1.844-0.717-3.342-1.345-4.494-1.883c-1.152-0.537-2.151-1.075-2.996-1.613
				c-0.845-0.537-1.613-1.113-2.305-1.729C359.177,336.438,358.343,335.697,357.371,334.825z M368.356,308.476
				c-0.564,0.819-1.19,1.564-1.882,2.229c-0.691,0.665-1.357,1.345-1.997,2.035c-0.641,0.691-1.217,1.459-1.729,2.305
				c-0.513,0.846-0.871,1.832-1.076,2.958c1.792-0.204,3.661-0.703,5.608-1.498c1.946-0.794,3.79-1.549,5.532-2.267
				c-0.206-1.586-0.756-2.868-1.652-3.841C370.264,309.425,369.329,308.783,368.356,308.476z"/>
			<path fill="#3D3E4E" d="M401.467,337.438c0.254,1.535,0.165,2.739-0.27,3.61c-0.437,0.872-1.051,1.524-1.844,1.959
				c-0.795,0.434-1.704,0.678-2.727,0.729c-1.025,0.05-1.998,0-2.919-0.153c-0.513-0.719-0.974-1.614-1.383-2.689
				c-0.41-1.075-0.794-2.189-1.152-3.342c-0.359-1.151-0.679-2.292-0.96-3.418c-0.282-1.125-0.525-2.124-0.729-2.996
				c0.255-0.615,0.422-1.317,0.5-2.112c0.077-0.794,0.127-1.601,0.154-2.42c0.024-0.818,0.05-1.651,0.076-2.496
				c0.025-0.846,0.089-1.652,0.192-2.42c0.358-2.151,0.883-4.198,1.575-6.146c0.691-1.946,1.241-3.968,1.651-6.068
				c0.102-0.461,0.063-0.896-0.115-1.307c-0.18-0.409-0.218-0.793-0.115-1.152c0.05-0.203,0.204-0.346,0.461-0.422
				c0.255-0.076,0.409-0.242,0.461-0.5c0.153-0.562,0.192-1.023,0.115-1.382c-0.076-0.357,0.013-0.794,0.27-1.307
				c0.255-0.409,0.576-1.01,0.96-1.805c0.384-0.794,0.524-1.625,0.423-2.497c0.46-0.308,0.896-0.665,1.306-1.076
				c0.409-0.41,0.832-0.78,1.267-1.114c0.435-0.333,0.922-0.626,1.46-0.884c0.538-0.256,1.191-0.384,1.958-0.384
				c0.408,0.512,0.679,1.076,0.808,1.69c0.126,0.614,0.254,1.229,0.384,1.844c0.127,0.614,0.318,1.19,0.576,1.728
				c0.255,0.539,0.69,0.961,1.306,1.269c0,0.41,0,0.922,0,1.536s0.025,1.217,0.077,1.806c0.049,0.589,0.165,1.126,0.346,1.613
				c0.178,0.488,0.473,0.807,0.883,0.96c-0.922,2.458-1.78,4.891-2.572,7.298c-0.796,2.408-1.449,4.828-1.96,7.259
				c-0.513,2.434-0.834,4.879-0.96,7.337C400.838,332.443,401.005,334.929,401.467,337.438z M425.896,278.362
				c-0.411,0.104-1.09,0.461-2.037,1.076c-0.948,0.614-2.164,1.587-3.647,2.919c-0.769,0.666-1.69,1.498-2.766,2.497
				c-1.076,0.999-2.243,1.972-3.496,2.919c-1.256,0.949-2.549,1.779-3.879,2.497c-1.333,0.718-2.612,1.103-3.841,1.152
				c-0.36-0.356-0.719-0.716-1.076-1.075c-0.359-0.357-0.653-0.717-0.884-1.076c-0.23-0.357-0.372-0.742-0.422-1.153
				c-0.053-0.41,0.076-0.871,0.384-1.383c-0.667-1.075-0.948-1.893-0.845-2.458c0.101-0.563,0.37-1.049,0.806-1.459
				c0.436-0.41,0.922-0.794,1.461-1.152c0.537-0.357,0.907-0.895,1.113-1.613c1.177-1.279,2.47-2.599,3.879-3.956
				c1.408-1.356,2.728-2.727,3.957-4.11c0.511-0.103,1.01-0.346,1.498-0.73c0.485-0.384,0.96-0.807,1.421-1.268
				s0.934-0.934,1.422-1.421c0.484-0.487,1.01-0.884,1.573-1.191c0.102,0.307,0.396,0.603,0.885,0.884
				c0.484,0.281,0.855,0.345,1.113,0.191c0.05,0.565,0.332,1.114,0.845,1.652c0.512,0.538,0.972,0.91,1.383,1.114
				c0.309,0.718,0.614,1.372,0.922,1.959c0.308,0.589,0.538,1.166,0.691,1.729c0.154,0.565,0.217,1.127,0.191,1.69
				C426.521,277.16,426.304,277.748,425.896,278.362z"/>
			<path fill="#3D3E4E" d="M453.627,319.769c-0.053,0.614,0,1.204,0.154,1.767c0.153,0.565,0.345,1.113,0.576,1.652
				c0.23,0.537,0.446,1.088,0.652,1.651c0.203,0.564,0.357,1.126,0.461,1.69c0.102,0.718,0.102,1.498,0,2.343
				c-0.104,0.845-0.283,1.664-0.537,2.458c-0.258,0.794-0.591,1.51-0.999,2.151c-0.411,0.641-0.898,1.113-1.46,1.421
				c-0.718,0.922-1.589,1.64-2.612,2.15c-1.025,0.513-1.973,1.127-2.842,1.845c-0.564,0.357-1.19,0.614-1.882,0.768
				c-0.692,0.153-1.397,0.307-2.113,0.461c-0.564,0.308-1.229,0.627-1.996,0.96c-0.77,0.335-1.564,0.642-2.383,0.922
				c-0.82,0.281-1.639,0.487-2.457,0.614c-0.821,0.129-1.537,0.167-2.151,0.115c-1.536,0.563-3.034,0.935-4.494,1.114
				s-3.164,0.063-5.108-0.346c-1.844,0.256-3.549,0.179-5.109-0.23c-1.562-0.411-2.945-1.063-4.147-1.959
				c-1.205-0.895-2.255-1.97-3.149-3.227c-0.897-1.255-1.628-2.573-2.189-3.956c-0.411-2.919-0.308-5.569,0.307-7.95
				c0.615-2.382,1.498-4.583,2.65-6.606s2.47-3.892,3.956-5.608c1.484-1.717,2.919-3.392,4.303-5.032
				c0.308,0.104,0.55,0.09,0.729-0.038c0.178-0.127,0.346-0.308,0.5-0.537c0.152-0.231,0.317-0.448,0.499-0.653
				c0.178-0.204,0.395-0.333,0.652-0.385c0.357-0.768,0.884-1.344,1.575-1.729c0.69-0.384,1.24-0.934,1.651-1.651
				c0.461-0.103,0.845-0.256,1.152-0.461c0.307-0.203,0.601-0.434,0.883-0.691c0.281-0.256,0.577-0.499,0.884-0.729
				s0.665-0.396,1.076-0.5v-0.845c0.922-0.41,1.599-0.883,2.035-1.421c0.434-0.537,0.96-1.19,1.575-1.958
				c0.46-0.05,0.831-0.077,1.113-0.077c0.281,0,0.704-0.05,1.268-0.154c0.409-0.717,0.78-1.255,1.114-1.613
				c0.332-0.357,0.831-0.741,1.498-1.152c0.615,0.307,1.291,0.512,2.036,0.615c0.741,0.104,1.394,0.435,1.958,0.999
				c0.051,0.512,0.204,0.91,0.462,1.191c0.254,0.281,0.537,0.538,0.845,0.768c0.307,0.231,0.6,0.474,0.883,0.73
				c0.281,0.257,0.473,0.615,0.576,1.076c0.204,0.05,0.346,0.026,0.423-0.077c0.077-0.103,0.216-0.127,0.422-0.077
				c0.154,0.718,0.333,1.191,0.539,1.42c0.202,0.23,0.407,0.68,0.614,1.345c-0.258,0.513-0.449,1.037-0.577,1.574
				c-0.129,0.539-0.448,0.936-0.959,1.192c-0.053,0.357,0.049,0.549,0.307,0.575c0.255,0.027,0.409,0.167,0.461,0.422
				c0.05,0.462-0.026,0.796-0.23,0.999c1.229,1.997,2.328,4.11,3.304,6.338C451.295,315.659,452.397,317.771,453.627,319.769z
				 M444.024,327.066c0.204-0.563,0.473-1.024,0.807-1.383c0.331-0.357,0.524-0.895,0.576-1.613
				c-0.257-0.409-0.411-0.729-0.461-0.96c-0.053-0.23-0.077-0.602-0.077-1.113c-1.128-1.588-2.102-3.291-2.918-5.11
				c-0.821-1.815-1.743-3.52-2.767-5.108c-0.104,0.205-0.282,0.411-0.538,0.615c-0.257,0.205-0.537,0.154-0.845-0.153
				c-0.104,0.411-0.282,0.704-0.537,0.883c-0.257,0.182-0.538,0.257-0.846,0.23c-0.307-0.025-0.629-0.103-0.96-0.23
				c-0.334-0.126-0.629-0.294-0.884-0.498c-1.485,1.179-2.972,2.33-4.455,3.456c-1.487,1.127-2.818,2.433-3.995,3.918
				c-0.206,0.104-0.333,0.142-0.384,0.115c-0.052-0.025-0.206,0.012-0.461,0.114c-0.41,0.974-0.91,1.857-1.498,2.651
				c-0.59,0.794-1.166,1.602-1.729,2.42c-0.564,0.819-1.051,1.689-1.46,2.611c-0.41,0.922-0.641,1.997-0.691,3.227
				c0.87,0.718,1.895,1.153,3.073,1.306c1.177,0.154,2.393,0.181,3.648,0.077c1.254-0.103,2.482-0.269,3.688-0.5
				c1.203-0.229,2.316-0.345,3.342-0.345c2.151-0.511,3.995-1.191,5.531-2.036C440.722,328.795,442.334,327.938,444.024,327.066z"/>
		</g>
	</g>
	<g>
		<g enable-background="new    ">
			<path fill="#3D3E4E" d="M468.139,306.578c0.237-0.717,0.622-1.331,1.152-1.844c0.529-0.512,1.108-0.947,1.741-1.306
				c0.632-0.358,1.288-0.657,1.972-0.896c0.682-0.238,1.332-0.443,1.946-0.615c1.364-0.58,2.823-1.135,4.378-1.665
				c1.554-0.529,3.141-0.999,4.764-1.409c1.621-0.41,3.285-0.673,4.993-0.793c1.706-0.119,3.499,0.095,5.377,0.64
				c0.103,0.342,0.257,0.666,0.462,0.973c0.204,0.307,0.417,0.614,0.64,0.922c0.222,0.308,0.417,0.606,0.589,0.896
				c0.17,0.29,0.272,0.589,0.308,0.896c0.34,0.308,0.614,0.64,0.819,0.999c0.205,0.357,0.237,0.828,0.103,1.407
				c-0.342,0.275-0.675,0.522-0.999,0.744c-0.325,0.222-0.675,0.418-1.05,0.588c-1.264-0.308-2.544-0.41-3.842-0.308
				s-2.458,0.189-3.481,0.257c-0.308-0.308-0.675-0.462-1.102-0.462c-0.428,0-0.871,0.07-1.331,0.205
				c-0.462,0.138-0.922,0.274-1.384,0.41c-0.46,0.137-0.896,0.172-1.306,0.103c-0.342,0.274-0.76,0.453-1.254,0.537
				c-0.495,0.087-1.034,0.163-1.614,0.231c-0.034,0.171,0,0.282,0.103,0.333s0.119,0.162,0.051,0.332
				c0.205,0.24,0.469,0.41,0.794,0.513c0.324,0.103,0.667,0.204,1.024,0.307c0.359,0.103,0.674,0.23,0.947,0.385
				c0.273,0.153,0.462,0.401,0.564,0.742c0.512,0,0.954,0.121,1.331,0.359c0.375,0.238,0.683,0.529,0.922,0.87
				c0.238,0.342,0.417,0.71,0.538,1.102c0.119,0.393,0.18,0.742,0.18,1.05c0.102,0.273,0.221,0.393,0.357,0.357
				c0.137-0.032,0.289,0.035,0.462,0.205c0.103,0.444,0.357,0.896,0.768,1.357c0.409,0.461,0.733,0.966,0.973,1.511
				c0.068,0.854,0.119,1.613,0.154,2.278c0.033,0.667-0.086,1.342-0.359,2.023c-0.511,1.265-1.221,2.391-2.125,3.381
				s-1.929,1.869-3.072,2.637c-1.146,0.769-2.365,1.427-3.662,1.973c-1.299,0.546-2.561,1.006-3.789,1.382
				c-0.138-0.034-0.275-0.034-0.41,0c-0.138,0.034-0.172-0.051-0.103-0.255c-0.274,0.237-0.572,0.392-0.896,0.46
				c-0.325,0.067-0.675,0.094-1.05,0.077c-0.377-0.018-0.76-0.043-1.152-0.077c-0.394-0.035-0.76-0.018-1.101,0.051
				c-0.24-0.238-0.453-0.469-0.641-0.69s-0.333-0.504-0.435-0.845c-0.173,0-0.25-0.086-0.231-0.257
				c0.017-0.17-0.043-0.256-0.179-0.256c0.205-0.341,0.298-0.538,0.281-0.589c-0.019-0.052-0.069-0.094-0.153-0.128
				c-0.086-0.034-0.163-0.077-0.231-0.129c-0.068-0.051-0.085-0.128-0.051-0.23c0.137-0.272,0.188-0.589,0.154-0.947
				c-0.035-0.358-0.069-0.724-0.104-1.101c-0.033-0.375-0.008-0.734,0.077-1.075s0.333-0.615,0.742-0.819
				c1.161,0.137,2.263,0.094,3.305-0.128c1.04-0.222,2.022-0.539,2.944-0.948c0.922-0.41,1.8-0.853,2.638-1.332
				c0.835-0.478,1.664-0.903,2.483-1.28c0.103-0.307,0.247-0.562,0.436-0.768c0.187-0.204,0.384-0.392,0.589-0.563
				c0.205-0.17,0.392-0.358,0.563-0.562c0.171-0.205,0.289-0.462,0.358-0.77c0.033-0.237-0.026-0.383-0.18-0.435
				c-0.152-0.052-0.229-0.18-0.229-0.385l-0.564-0.153c-0.648-0.375-1.382-0.691-2.201-0.947c-0.82-0.256-1.521-0.538-2.1-0.846
				c-0.377,0.205-0.727,0.257-1.051,0.154s-0.742-0.205-1.255-0.308c-1.16-0.067-2.278-0.187-3.354-0.358
				c-1.076-0.17-2.109-0.478-3.099-0.922c-0.069-0.17-0.154-0.323-0.257-0.461c-0.102-0.136-0.29-0.17-0.562-0.103
				c-0.205-0.272-0.41-0.537-0.614-0.794c-0.205-0.255-0.395-0.537-0.564-0.845c0.067-0.409,0.119-0.759,0.154-1.05
				c0.033-0.289-0.069-0.571-0.308-0.845c0.136-0.443,0.238-0.801,0.308-1.076C468.206,307.381,468.206,307.022,468.139,306.578z"/>
			<path fill="#3D3E4E" d="M521.861,300.484c0.068,0.751,0.187,1.401,0.358,1.947c0.171,0.546,0.358,1.075,0.563,1.587
				c0.17,0.479,0.333,0.947,0.486,1.409c0.153,0.46,0.265,1.016,0.333,1.664c-0.273,0.888-0.47,1.708-0.589,2.458
				c-0.12,0.751-0.249,1.537-0.384,2.355c-0.547,1.196-1.076,2.253-1.588,3.175c-0.513,0.922-0.922,1.725-1.229,2.408
				c-0.171,0.171-0.315,0.367-0.435,0.588c-0.121,0.223-0.249,0.454-0.385,0.691c-0.069,0.103-0.153,0.257-0.256,0.462
				s-0.188,0.341-0.257,0.41l-1.023-0.359l-0.205,1.281l-0.716,0.203l-0.513,0.615c-0.649,1.126-1.331,2.074-2.049,2.843
				c-0.717,0.769-1.529,1.452-2.433,2.048c-0.905,0.599-1.93,1.152-3.073,1.665c-1.145,0.512-2.432,1.076-3.866,1.69
				c-0.582-0.068-1.084-0.11-1.511-0.129c-0.428-0.016-0.828-0.042-1.204-0.076c-0.648,0-1.452-0.052-2.406-0.154
				c-0.103-0.272-0.257-0.46-0.462-0.562s-0.393-0.154-0.562-0.154c-0.581-0.272-1.018-0.674-1.307-1.204
				c-0.29-0.527-0.572-1.101-0.845-1.715c-0.171-0.376-0.342-0.726-0.512-1.05c-0.172-0.324-0.358-0.656-0.563-0.999l0.87-0.256
				l-1.126-1.229c-0.069-0.103-0.153-0.195-0.256-0.281c-0.103-0.084-0.189-0.18-0.257-0.281l-0.051-0.82
				c-0.103-2.355-0.146-4.514-0.129-6.479c0.017-1.963,0.282-3.713,0.794-5.249v-0.562c0.103-0.751,0.205-1.374,0.308-1.87
				c0.103-0.494,0.187-0.964,0.257-1.408c0.103-0.751,0.256-1.451,0.46-2.101c0.478-0.103,0.837-0.298,1.076-0.588
				c0.237-0.289,0.442-0.555,0.615-0.794c0.477-0.034,0.801,0.034,0.972,0.204c0.171,0.172,0.342,0.445,0.513,0.82
				c0.17,0.307,0.385,0.649,0.64,1.024c0.257,0.376,0.641,0.665,1.152,0.87c0.068,0.274,0.161,0.557,0.282,0.846
				c0.119,0.29,0.247,0.606,0.384,0.947c0.272,0.581,0.52,1.187,0.743,1.817c0.222,0.633,0.349,1.238,0.384,1.818
				c-0.342,0.649-0.607,1.4-0.794,2.253c-0.188,0.854-0.308,1.717-0.358,2.587c-0.052,0.871-0.034,1.707,0.051,2.509
				c0.085,0.804,0.23,1.478,0.436,2.023l0.307,0.666l0.872-0.103c1.023-0.273,1.953-0.571,2.791-0.896
				c0.836-0.324,1.612-0.708,2.329-1.152c0.717-0.443,1.4-0.964,2.049-1.562c0.648-0.597,1.331-1.287,2.049-2.074
				c0.717-0.784,1.34-1.681,1.869-2.688c0.528-1.006,0.974-2.056,1.331-3.148c0.359-1.094,0.632-2.177,0.819-3.253
				c0.188-1.075,0.316-2.091,0.385-3.047c0.58-0.205,0.87-0.614,0.87-1.229l-0.103-0.564c-0.136-0.205-0.136-0.443,0-0.717
				c0.205-0.648,0.684-1.143,1.435-1.485c0.546,0.342,1.032,0.717,1.46,1.127C521.084,299.665,521.485,300.074,521.861,300.484z"/>
			<path fill="#3D3E4E" d="M550.899,300.792c0.033,0.238,0.042,0.418,0.026,0.537c-0.019,0.12-0.035,0.23-0.052,0.333
				c-0.019,0.103-0.025,0.213-0.025,0.332c0,0.121,0.032,0.301,0.103,0.539c-0.717,1.16-1.546,1.954-2.484,2.381
				c-0.939,0.427-1.955,0.734-3.047,0.922c-1.094,0.188-2.212,0.384-3.355,0.589c-1.144,0.204-2.278,0.649-3.405,1.331
				c-0.443-0.17-0.845-0.17-1.203,0c-0.358,0.173-0.88,0.223-1.562,0.154c-0.205,0.205-0.462,0.351-0.769,0.436
				c-0.308,0.085-0.615,0.179-0.922,0.281c0.136,0.308,0.196,0.623,0.18,0.947c-0.019,0.325,0.024,0.59,0.127,0.794
				c1.194,0.103,2.518,0.086,3.97-0.052c1.45-0.136,2.876-0.222,4.276-0.255c0.033,0.171,0.017,0.28-0.051,0.332
				c-0.07,0.051-0.087,0.146-0.052,0.282c0.238,0.171,0.477,0.384,0.717,0.64c0.238,0.256,0.478,0.504,0.717,0.743
				c0.238,0.239,0.487,0.435,0.742,0.589c0.257,0.153,0.555,0.213,0.896,0.179c0.137,0.274,0.23,0.572,0.282,0.896
				c0.051,0.325,0.008,0.658-0.128,0.999c-0.547,0.376-1.094,0.76-1.639,1.152c-0.547,0.393-1.119,0.742-1.716,1.049
				c-0.598,0.308-1.229,0.556-1.896,0.743c-0.665,0.188-1.408,0.265-2.228,0.23c-0.171,0-0.3,0-0.384,0
				c-0.086,0-0.197-0.052-0.333-0.153c-0.273,0.172-0.658,0.223-1.152,0.153c-0.495-0.068-0.88-0.017-1.153,0.153
				c-0.376-0.17-0.827-0.247-1.356-0.23c-0.53,0.019-0.998-0.042-1.408-0.179c-0.547,0.717-1.042,1.485-1.485,2.305
				c-0.443,0.818-0.838,1.689-1.178,2.611c1.159,0.172,2.125,0.24,2.894,0.205c0.768-0.033,1.493-0.094,2.177-0.18
				c0.682-0.084,1.383-0.17,2.1-0.255s1.621-0.111,2.715-0.077c0.682-0.375,1.493-0.622,2.432-0.742s1.801-0.316,2.586-0.59
				c0.273,0.103,0.514,0.282,0.719,0.538c0.203,0.256,0.399,0.495,0.588,0.717c0.187,0.223,0.385,0.419,0.589,0.589
				c0.205,0.172,0.461,0.24,0.768,0.205c0.137,0.138,0.231,0.299,0.282,0.486c0.052,0.188,0.094,0.368,0.128,0.538
				c0.034,0.171,0.094,0.315,0.18,0.435c0.084,0.121,0.23,0.163,0.435,0.128c-0.512,1.127-1.1,1.99-1.767,2.587
				c-0.665,0.599-1.426,1.05-2.278,1.357c-0.854,0.308-1.802,0.546-2.842,0.717c-1.043,0.172-2.195,0.376-3.458,0.615
				c-0.307,0.067-0.563,0.058-0.769-0.026c-0.205-0.086-0.443-0.128-0.717-0.128c-0.786,0.17-1.725,0.324-2.816,0.461
				c-1.093,0.136-2.202,0.188-3.328,0.153c-1.127-0.035-2.203-0.18-3.228-0.435c-1.024-0.257-1.861-0.709-2.509-1.357
				c-0.274-0.238-0.453-0.521-0.538-0.846c-0.085-0.323-0.316-0.57-0.691-0.742c-0.035-0.442-0.103-0.938-0.205-1.485
				c-0.103-0.546-0.205-1.118-0.307-1.716c-0.103-0.597-0.18-1.186-0.23-1.767c-0.052-0.58-0.025-1.108,0.077-1.587
				c0.103-0.513,0.314-0.974,0.64-1.384c0.324-0.409,0.436-0.852,0.333-1.331c0.17-0.033,0.272-0.128,0.307-0.282
				c0.034-0.153,0.17-0.212,0.41-0.179c0.205-0.614,0.427-1.195,0.666-1.741c0.237-0.546,0.486-1.076,0.742-1.588
				c0.256-0.513,0.513-1.032,0.769-1.562c0.256-0.528,0.503-1.117,0.742-1.767c-0.479-0.443-0.828-0.929-1.05-1.459
				c-0.223-0.529-0.385-1.059-0.486-1.588c-0.102-0.528-0.188-1.075-0.256-1.639c-0.069-0.563-0.188-1.135-0.358-1.716
				c0.34-0.512,0.76-0.929,1.255-1.255c0.494-0.323,1.031-0.589,1.612-0.794s1.212-0.375,1.896-0.512
				c0.683-0.137,1.399-0.289,2.151-0.461c1.364-0.443,2.586-0.785,3.661-1.024c1.076-0.238,2.133-0.435,3.175-0.589
				s2.126-0.298,3.253-0.436c1.127-0.136,2.406-0.34,3.841-0.615c0.308,0.308,0.597,0.461,0.87,0.461
				c0.136-0.307,0.299-0.4,0.486-0.281c0.188,0.121,0.265,0.025,0.23-0.282c0.341,0.582,0.776,1.068,1.307,1.46
				C549.661,300.186,550.251,300.519,550.899,300.792z"/>
			<path fill="#3D3E4E" d="M560.169,320.304c-0.308,0.068-0.53,0.248-0.665,0.537c-0.138,0.291-0.266,0.59-0.385,0.896
				c-0.12,0.308-0.239,0.59-0.357,0.845c-0.121,0.257-0.301,0.385-0.539,0.385c-0.034,0.273-0.128,0.512-0.281,0.717
				s-0.3,0.419-0.436,0.641c-0.137,0.223-0.239,0.461-0.308,0.717s-0.034,0.556,0.103,0.896c-0.273,0.205-0.443,0.495-0.512,0.87
				c-0.069,0.377-0.146,0.735-0.23,1.076c-0.086,0.341-0.23,0.632-0.436,0.87c-0.204,0.239-0.581,0.342-1.126,0.308
				c-0.103,0.137-0.121,0.223-0.051,0.256c0.067,0.034,0.118,0.153,0.152,0.358c-0.376-0.067-0.657-0.044-0.845,0.077
				c-0.188,0.119-0.419,0.195-0.691,0.229c-0.649-0.204-1.187-0.562-1.613-1.074c-0.427-0.513-0.803-1.084-1.127-1.717
				c-0.324-0.631-0.613-1.271-0.87-1.92c-0.257-0.647-0.503-1.212-0.742-1.69c0.103-0.375,0.12-0.742,0.051-1.101
				c-0.068-0.358-0.188-0.657-0.358-0.897c1.672-3.55,3.5-7.339,5.479-11.368c1.98-4.028,3.857-8.006,5.634-11.933
				c0.785,0.307,1.562,0.658,2.33,1.05c0.769,0.393,1.468,0.845,2.1,1.358c0.632,0.512,1.169,1.101,1.613,1.767
				c0.443,0.665,0.733,1.407,0.871,2.227c-0.07,0.205-0.146,0.282-0.23,0.231c-0.087-0.052-0.163-0.026-0.231,0.076
				c0.137,0.172,0.214,0.292,0.231,0.359c0.016,0.068,0.016,0.137,0,0.205c-0.018,0.068-0.026,0.162-0.026,0.281
				c0,0.12,0.052,0.281,0.154,0.486c-0.138-0.033-0.23-0.016-0.282,0.052c-0.051,0.068-0.162,0.068-0.332,0
				c0.136,0.376,0.179,0.683,0.127,0.922c-0.051,0.238-0.127,0.453-0.229,0.64c-0.103,0.188-0.188,0.393-0.257,0.614
				c-0.068,0.224-0.051,0.505,0.052,0.845c-0.103,0-0.18,0.025-0.23,0.077c-0.052,0.051-0.095,0.103-0.129,0.153
				c-0.033,0.052-0.076,0.103-0.128,0.154c-0.051,0.051-0.127,0.061-0.229,0.025c0.103,0.752,0.136,1.503,0.103,2.254
				c-0.035,0.752-0.061,1.511-0.077,2.278c-0.019,0.769-0.009,1.571,0.026,2.407c0.032,0.837,0.152,1.699,0.357,2.587
				c1.229-0.717,2.21-1.639,2.945-2.766c0.733-1.127,1.332-2.39,1.792-3.79c0.461-1.399,0.812-2.902,1.05-4.507
				s0.494-3.243,0.769-4.917c0.308-0.308,0.545-0.683,0.717-1.126c0.171-0.443,0.323-0.913,0.461-1.408
				c0.136-0.495,0.272-0.99,0.41-1.486c0.136-0.494,0.307-0.948,0.512-1.357c0.512,0.069,0.947,0.231,1.307,0.487
				c0.357,0.256,0.69,0.53,0.998,0.819c0.307,0.291,0.631,0.563,0.973,0.82c0.341,0.256,0.769,0.418,1.28,0.487
				c0.41,0.581,0.786,1.144,1.127,1.689c0.341,0.547,0.563,1.127,0.666,1.741c-0.172,0.273-0.3,0.581-0.384,0.922
				c-0.086,0.343-0.18,0.684-0.282,1.024c-0.103,0.343-0.24,0.658-0.41,0.947c-0.171,0.291-0.409,0.538-0.717,0.742
				c-0.103,0.89-0.23,1.699-0.383,2.434c-0.154,0.734-0.308,1.459-0.462,2.176c-0.153,0.718-0.282,1.46-0.385,2.229
				c-0.102,0.768-0.136,1.612-0.102,2.534c-0.274,0.787-0.563,1.622-0.871,2.511c-0.307,0.888-0.547,1.689-0.717,2.406
				c-0.547,0.444-0.974,0.973-1.28,1.587c-0.307,0.615-0.632,1.229-0.973,1.844c-0.138,0.138-0.224,0.173-0.256,0.103
				c-0.035-0.067-0.154-0.119-0.359-0.153c0.034,0.137,0.034,0.239,0,0.308c-0.034,0.069-0.077,0.128-0.128,0.179
				c-0.052,0.052-0.085,0.129-0.102,0.231c-0.019,0.103,0.007,0.238,0.076,0.409c-0.479,0.205-0.905,0.496-1.28,0.87
				c-0.376,0.376-0.777,0.718-1.204,1.024c-0.427,0.308-0.938,0.513-1.535,0.615c-0.599,0.103-1.376-0.018-2.331-0.358
				c-1.4-1.024-2.638-2.203-3.713-3.534C561.73,323.734,560.853,322.147,560.169,320.304z"/>
			<path fill="#3D3E4E" d="M606.364,325.322c-0.205,0.581-0.505,1.171-0.896,1.768c-0.395,0.598-0.855,1.126-1.383,1.587
				c-0.53,0.461-1.119,0.846-1.767,1.153c-0.65,0.307-1.332,0.477-2.049,0.512c-0.445-0.104-0.743-0.214-0.896-0.334
				c-0.154-0.12-0.317-0.229-0.486-0.332c-0.103-0.067-0.197-0.128-0.282-0.18c-0.087-0.051-0.164-0.093-0.23-0.128l-0.614-0.256
				l0.205-0.666c0.066-0.272,0.052-0.486-0.051-0.64c-0.103-0.154-0.308-0.366-0.615-0.64c-0.102-0.103-0.204-0.205-0.307-0.308
				s-0.188-0.205-0.257-0.308l-0.87-0.974l1.382-0.357c0.854-0.239,1.425-0.546,1.717-0.922c0.289-0.375,0.398-1.007,0.332-1.896
				c-0.684-0.136-1.254-0.153-1.716-0.051c-0.46,0.103-0.931,0.223-1.407,0.357c-0.615,0.173-1.239,0.317-1.869,0.437
				c-0.633,0.119-1.324,0.179-2.074,0.179c-0.274,0-0.53-0.008-0.769-0.025c-0.24-0.018-0.496-0.043-0.769-0.077l-0.512-0.103
				c-0.069-0.375-0.138-0.589-0.205-0.64c-0.069-0.051-0.137-0.11-0.205-0.18c-0.172-0.17-0.351-0.4-0.538-0.691
				c-0.188-0.289-0.23-0.656-0.128-1.101c-0.171-0.308-0.273-0.615-0.308-0.922c-0.204,0.409-0.357,0.837-0.46,1.28l-0.205,0.512
				l-0.512,0.104c-0.07,0.033-0.121,0.11-0.154,0.229c-0.034,0.121-0.051,0.214-0.051,0.281l-0.257,0.871
				c-0.068,0.069-0.136,0.128-0.205,0.18c-0.068,0.051-0.136,0.111-0.204,0.179c-0.069,0.307-0.153,0.614-0.256,0.922
				c-0.103,0.307-0.205,0.598-0.308,0.871c-0.172,0.443-0.316,0.88-0.435,1.305c-0.121,0.428-0.163,0.847-0.129,1.256l-0.205,0.562
				c-0.171,0.205-0.358,0.368-0.562,0.487c-0.205,0.12-0.41,0.23-0.615,0.333c-0.068,0.068-0.162,0.127-0.281,0.179
				c-0.121,0.051-0.214,0.095-0.282,0.128l-0.153,0.564l-0.614,0.103c-0.376,0.067-0.641,0.118-0.794,0.152
				s-0.333,0.052-0.538,0.052l-0.512-0.052c-0.376-0.307-0.666-0.554-0.87-0.742c-0.205-0.187-0.445-0.366-0.718-0.537
				c-0.307-0.41-0.478-0.717-0.512-0.922s-0.068-0.392-0.103-0.564c-0.068-0.204-0.11-0.374-0.128-0.512
				c-0.017-0.135-0.059-0.237-0.129-0.308l-0.665-0.614l0.562-0.461l0.052-0.871c0.684-1.741,1.408-3.413,2.177-5.018
				c0.768-1.605,1.562-3.244,2.382-4.917c0.271-0.546,0.537-1.092,0.794-1.639c0.255-0.546,0.52-1.092,0.793-1.64
				c-0.034-0.103-0.051-0.222-0.051-0.357c0-0.137,0.033-0.29,0.103-0.462c0.375-0.579,0.682-1.102,0.922-1.562
				c0.238-0.462,0.478-0.93,0.717-1.409c0.272-0.579,0.555-1.144,0.845-1.689c0.289-0.546,0.657-1.108,1.102-1.69l0.819-0.358
				c0.103-0.033,0.221-0.077,0.358-0.127c0.136-0.052,0.289-0.077,0.461-0.077l0.768,0.103c0.956-0.444,1.792-1.067,2.511-1.869
				c0.716-0.802,1.449-1.768,2.201-2.895l0.513-0.717l0.665,0.41c0.171,0.103,0.41,0.197,0.717,0.282
				c0.308,0.086,0.631,0.179,0.974,0.282c0.615,0.137,1.193,0.291,1.741,0.461c0.545,0.171,0.988,0.428,1.332,0.768
				c0.205,0.547,0.322,0.957,0.358,1.229c0.033,0.273,0.084,0.547,0.153,0.819c0.102,0.581,0.194,1.161,0.281,1.741
				c0.085,0.581,0.144,1.229,0.18,1.946c0.169,0.581,0.314,1.152,0.436,1.715c0.117,0.563,0.229,1.137,0.332,1.716
				c0.17,0.819,0.341,1.614,0.513,2.382c0.169,0.769,0.393,1.494,0.666,2.176c0.271,0,0.442,0.019,0.512,0.052
				c0.169-0.067,0.349-0.119,0.538-0.153c0.187-0.033,0.399-0.068,0.64-0.103l0.564-0.051l0.204,0.512
				c0.033,0.171,0.205,0.342,0.513,0.513c0.442,0.034,0.768,0.127,0.973,0.281c0.205,0.153,0.392,0.316,0.563,0.486
				c0.135,0.137,0.271,0.239,0.41,0.307l0.768,0.308l-0.41,0.769c-0.343,0.615-0.829,1.203-1.459,1.767
				c-0.633,0.563-1.342,1.033-2.126,1.409c0.034,0.205,0.06,0.401,0.077,0.588c0.016,0.188,0.059,0.385,0.128,0.59
				c0.103,0.58,0.187,1.177,0.257,1.792c0.066,0.614,0.066,1.247,0,1.896L606.364,325.322z M591.563,316.463
				c1.023-0.068,1.953-0.145,2.791-0.23c0.836-0.085,1.767-0.231,2.791-0.436c-0.239-1.024-0.496-2.091-0.769-3.201
				c-0.274-1.108-0.563-2.21-0.871-3.303l-0.307,0.512c-0.684,0.717-1.341,1.52-1.972,2.406c-0.633,0.89-1.17,1.726-1.613,2.511
				c-0.204,0.307-0.409,0.614-0.614,0.922c-0.205,0.307-0.394,0.614-0.563,0.922c0.204-0.034,0.401-0.052,0.589-0.052
				C591.212,316.514,591.392,316.497,591.563,316.463z"/>
		</g>
	</g>
	<g>
		<g enable-background="new    ">
			<path fill="#3D3E4E" d="M314.4,303.936c0.027,0.192,0.034,0.335,0.021,0.431c-0.014,0.096-0.028,0.185-0.041,0.267
				c-0.014,0.081-0.021,0.171-0.021,0.266c0,0.097,0.027,0.24,0.082,0.431c-0.574,0.929-1.236,1.564-1.987,1.905
				c-0.751,0.341-1.563,0.587-2.438,0.737c-0.874,0.15-1.768,0.308-2.683,0.471c-0.916,0.164-1.823,0.52-2.725,1.065
				c-0.355-0.136-0.676-0.136-0.963,0c-0.287,0.137-0.704,0.178-1.25,0.123c-0.164,0.164-0.369,0.28-0.615,0.349
				s-0.492,0.144-0.737,0.226c0.109,0.245,0.157,0.499,0.143,0.758s0.021,0.471,0.103,0.635c0.956,0.082,2.014,0.069,3.175-0.041
				c1.161-0.109,2.301-0.177,3.421-0.205c0.026,0.137,0.013,0.225-0.041,0.266c-0.055,0.041-0.069,0.117-0.041,0.227
				c0.19,0.136,0.382,0.307,0.574,0.511c0.19,0.205,0.382,0.404,0.573,0.595c0.191,0.192,0.389,0.348,0.594,0.471
				c0.205,0.123,0.444,0.172,0.717,0.144c0.109,0.22,0.185,0.459,0.225,0.717c0.041,0.261,0.007,0.526-0.102,0.799
				c-0.437,0.302-0.875,0.609-1.312,0.922c-0.437,0.316-0.895,0.595-1.372,0.84c-0.478,0.246-0.983,0.445-1.516,0.595
				c-0.533,0.151-1.127,0.213-1.783,0.185c-0.137,0-0.239,0-0.307,0c-0.069,0-0.157-0.041-0.266-0.123
				c-0.219,0.137-0.526,0.178-0.922,0.123c-0.396-0.054-0.704-0.013-0.922,0.123c-0.301-0.136-0.663-0.197-1.086-0.185
				c-0.424,0.015-0.799-0.033-1.127-0.144c-0.437,0.573-0.833,1.188-1.188,1.844c-0.355,0.655-0.67,1.352-0.942,2.09
				c0.928,0.137,1.7,0.191,2.314,0.164c0.615-0.027,1.195-0.075,1.741-0.144c0.546-0.067,1.106-0.137,1.68-0.205
				c0.573-0.067,1.297-0.088,2.171-0.062c0.546-0.3,1.194-0.498,1.946-0.594c0.751-0.096,1.44-0.252,2.068-0.472
				c0.219,0.082,0.41,0.226,0.574,0.431c0.164,0.204,0.321,0.396,0.471,0.573c0.15,0.179,0.308,0.335,0.471,0.472
				c0.164,0.137,0.369,0.191,0.615,0.163c0.109,0.11,0.185,0.24,0.225,0.39c0.041,0.15,0.076,0.294,0.103,0.43
				c0.027,0.138,0.075,0.254,0.144,0.349c0.068,0.097,0.184,0.13,0.348,0.103c-0.41,0.901-0.881,1.591-1.414,2.069
				s-1.141,0.84-1.823,1.086c-0.683,0.245-1.441,0.438-2.273,0.573c-0.834,0.137-1.755,0.3-2.766,0.492
				c-0.246,0.053-0.451,0.047-0.615-0.021c-0.164-0.07-0.355-0.103-0.574-0.103c-0.628,0.135-1.379,0.258-2.253,0.368
				c-0.874,0.108-1.761,0.149-2.663,0.123c-0.901-0.028-1.762-0.144-2.582-0.349c-0.819-0.204-1.489-0.565-2.007-1.085
				c-0.219-0.191-0.362-0.417-0.43-0.677c-0.068-0.259-0.253-0.456-0.553-0.594c-0.027-0.354-0.082-0.751-0.164-1.188
				c-0.082-0.437-0.164-0.894-0.246-1.372c-0.082-0.478-0.144-0.948-0.185-1.414c-0.041-0.464-0.021-0.887,0.062-1.27
				c0.082-0.41,0.252-0.779,0.512-1.106c0.259-0.328,0.348-0.683,0.266-1.065c0.137-0.026,0.219-0.103,0.246-0.226
				c0.027-0.123,0.137-0.17,0.328-0.144c0.164-0.491,0.341-0.954,0.533-1.393c0.191-0.437,0.389-0.86,0.594-1.271
				c0.205-0.409,0.41-0.825,0.614-1.25c0.205-0.422,0.403-0.893,0.594-1.412c-0.383-0.355-0.663-0.744-0.84-1.168
				c-0.178-0.423-0.308-0.847-0.389-1.27c-0.082-0.423-0.151-0.86-0.205-1.312c-0.055-0.451-0.15-0.908-0.287-1.373
				c0.273-0.409,0.607-0.743,1.004-1.004c0.396-0.259,0.825-0.471,1.291-0.635c0.464-0.164,0.969-0.3,1.516-0.409
				c0.546-0.109,1.119-0.231,1.721-0.369c1.092-0.354,2.068-0.628,2.929-0.819c0.86-0.19,1.707-0.349,2.54-0.472
				c0.833-0.122,1.701-0.238,2.602-0.348c0.901-0.108,1.925-0.272,3.072-0.492c0.246,0.246,0.478,0.369,0.697,0.369
				c0.109-0.246,0.239-0.32,0.389-0.226c0.15,0.097,0.211,0.021,0.184-0.226c0.273,0.466,0.622,0.854,1.045,1.168
				C313.41,303.451,313.881,303.718,314.4,303.936z"/>
			<path fill="#3D3E4E" d="M324.233,326.552c-0.765,0.246-1.598,0.492-2.5,0.737c-0.901,0.246-1.803,0.369-2.704,0.369
				c-1.366,0-2.444-0.342-3.236-1.024c-0.137-0.3-0.26-0.505-0.369-0.614c-0.082-0.109-0.158-0.226-0.226-0.349
				c-0.068-0.123-0.117-0.294-0.143-0.512c-0.328-0.382-0.588-0.827-0.779-1.332c-0.191-0.505-0.321-1.024-0.389-1.557
				c-0.068-0.533-0.082-1.071-0.041-1.619c0.041-0.545,0.13-1.064,0.267-1.557c0.054-0.108,0.088-0.218,0.102-0.328
				c0.014-0.108,0.034-0.231,0.062-0.368c0.109-0.437,0.226-0.86,0.349-1.271c0.123-0.409,0.293-0.764,0.512-1.065
				c-0.11-0.245-0.11-0.518,0-0.819c0.108-0.299,0.231-0.573,0.369-0.819c0.382-1.036,0.703-1.917,0.963-2.643
				c0.259-0.724,0.525-1.44,0.799-2.15c0.464-1.229,0.901-2.444,1.311-3.646c0.41-1.201,0.779-2.499,1.106-3.893
				c0.219-0.136,0.382-0.231,0.492-0.286c0.164-0.055,0.3-0.096,0.41-0.123c0.492,0.245,1.065,0.485,1.721,0.717
				c0.656,0.232,1.202,0.349,1.639,0.349c0.218,0.137,0.355,0.239,0.41,0.307c0.054,0.069,0.108,0.131,0.164,0.185
				c0.3,0.355,0.559,0.717,0.778,1.086c0.218,0.368,0.287,0.854,0.205,1.454c-0.164,0.246-0.287,0.369-0.369,0.369
				c-0.137,0.546-0.281,1.011-0.43,1.393c-0.15,0.383-0.307,0.766-0.471,1.147c-0.191,0.41-0.369,0.819-0.533,1.229
				c-0.164,0.409-0.301,0.915-0.41,1.516c-0.109,0.137-0.184,0.26-0.225,0.369s-0.089,0.232-0.144,0.369
				c-0.055,0.136-0.116,0.279-0.185,0.429c-0.068,0.151-0.171,0.28-0.307,0.39c-0.082,0.711-0.212,1.284-0.389,1.721
				c-0.178,0.438-0.362,0.875-0.553,1.311c-0.328,0.793-0.621,1.586-0.881,2.377c-0.26,0.793-0.417,1.694-0.471,2.704
				c0.137-0.054,0.266-0.082,0.389-0.082s0.239,0,0.348,0c0.246,0,0.533,0.041,0.86,0.123c0.82-0.437,1.714-0.696,2.684-0.778
				c0.969-0.082,1.932-0.137,2.889-0.164c0.382,0,0.764,0,1.146,0s0.738-0.026,1.065-0.082c0.246,0.138,0.403,0.212,0.471,0.226
				c0.068,0.014,0.17,0.021,0.307,0.021c0.191,0,0.355,0.014,0.492,0.041c0.328,0.301,0.642,0.52,0.942,0.655
				c0.3,0.138,0.615,0.261,0.942,0.369c0.3,0.109,0.594,0.225,0.881,0.348c0.287,0.123,0.566,0.294,0.84,0.513l0.287,1.762
				c0.19,0.246,0.272,0.409,0.246,0.491c0,0.22-0.055,0.384-0.164,0.492l0.082,0.45c-0.41,0.082-0.691,0.178-0.84,0.287
				c-0.15,0.109-0.294,0.232-0.43,0.369c-0.219,0.027-0.376,0.041-0.471,0.041c-0.096,0-0.184,0-0.266,0
				c-0.383,0-0.847,0.068-1.393,0.204c-0.738-0.245-1.502-0.368-2.294-0.368c-0.301,0-0.615,0.013-0.942,0.041
				c-0.328,0.027-0.655,0.054-0.983,0.082c-0.328,0.054-0.663,0.095-1.004,0.122c-0.342,0.028-0.69,0.041-1.045,0.041
				L324.233,326.552z"/>
		</g>
	</g>
</g>
</svg>
