<?xml version="1.0" encoding="utf-8"?>
<!-- Generator: Adobe Illustrator 19.2.1, SVG Export Plug-In . SVG Version: 6.00 Build 0)  -->
<svg version="1.1" id="Layer_1" xmlns="http://www.w3.org/2000/svg" xmlns:xlink="http://www.w3.org/1999/xlink" x="0px" y="0px"
	 viewBox="0 0 190.7 75.7" style="enable-background:new 0 0 190.7 75.7;" xml:space="preserve">
<style type="text/css">
	.st0{opacity:0.1;fill:#DF531C;enable-background:new    ;}
	.st1{opacity:0.5;enable-background:new    ;}
	.st2{fill:#DF531C;}
</style>
<path class="st0" d="M38.3,74.8c0,0-0.4-13.6-8.4-14c-8-0.3-22.7-0.2-25.3-16.8C2,27.8-3.9,11.9,28.6,6.7
	C61.5,1.4,158.9,1,182.1,16.4c12.6,8.4,11.4,41.3-24.5,41.6c-41.4,0.3-41.3,1.7-41.3,1.7s-55.6-0.1-64.1,1.4
	C44.2,62.6,38.7,69.6,38.3,74.8z"/>
<g class="st1">
	<path class="st2" d="M23.5,41.7C23.4,41.7,23.4,41.7,23.5,41.7c-0.1-0.1-0.1-0.1-0.1-0.1c0,0,0-0.1,0.1-0.1c0,0,0.1,0,0.1,0
		c-0.2-0.2-0.3-0.4-0.3-0.5c0-0.2-0.1-0.3-0.2-0.6c0,0,0.1-0.1,0.1-0.2c0-0.1,0-0.1,0-0.2c0-0.1,0-0.1,0.1-0.1c0,0,0.1,0,0.1,0
		c0-0.1,0-0.2,0-0.3c0-0.1,0.1-0.2,0.1-0.2c0-0.1,0.1-0.1,0.1-0.2c0-0.1,0-0.2-0.1-0.3c0.2-0.3,0.4-0.7,0.4-1c0.1-0.4,0.1-0.7,0.1-1
		c0.1-0.1,0.2-0.3,0.3-0.4c0.1-0.2,0.1-0.4,0.2-0.6c0-0.2,0.1-0.4,0.1-0.6c0-0.2,0-0.3-0.1-0.4c0,0,0-0.1,0.1-0.1c0,0,0.1,0,0.2,0
		c0.1-0.5,0.1-1,0.2-1.6s0.1-1.2,0.2-1.7c0.1-0.5,0.2-1,0.4-1.4c0.2-0.4,0.5-0.7,1-0.8c0.1,0.3,0.2,0.6,0.3,0.8
		c0.1,0.2,0.3,0.4,0.4,0.7s0.3,0.4,0.5,0.6c0.2,0.2,0.3,0.5,0.5,0.7c0,0.3,0,0.6-0.1,1s-0.1,0.7-0.2,1.1c-0.1,0.4-0.1,0.7-0.2,1.1
		s-0.1,0.6-0.2,0.9c0,0.1,0.1,0.1,0.1,0.1c0.1,0,0.1,0.1,0,0.2c0.3-0.1,0.7-0.2,1.1-0.2c0.4-0.1,0.7-0.2,1.1-0.2s0.7-0.2,1.1-0.3
		c0.4-0.1,0.7-0.2,1-0.4c0.1-0.6,0.2-1.1,0.3-1.7s0.1-1.1,0-1.7c0.1-0.1,0.1-0.1,0.2-0.2c0-0.1,0.1-0.1,0.2-0.2
		c-0.1-0.3-0.1-0.6-0.1-0.9c0-0.3,0.1-0.6,0.2-0.9c0.1-0.3,0.2-0.5,0.4-0.7s0.4-0.3,0.7-0.4c0.2,0.2,0.3,0.5,0.4,0.7
		s0.2,0.5,0.4,0.8c0.1,0.3,0.2,0.5,0.4,0.8c0.1,0.2,0.3,0.4,0.5,0.6c0,0.4,0.1,0.8,0.1,1.3c0,0.4,0,0.9,0.1,1.4
		c-0.1,0.5-0.2,1.1-0.4,1.6c-0.1,0.5-0.2,1.1-0.3,1.6c-0.1,0.1-0.2,0.2-0.2,0.4c-0.1,0.2-0.1,0.3-0.2,0.5c-0.1,0.1-0.1,0.3-0.2,0.4
		c-0.1,0.1-0.2,0.3-0.3,0.4c0,0.2,0.1,0.3,0,0.5c0,0.1,0,0.3,0.1,0.5c0,0.4,0,0.7-0.1,0.9c-0.1,0.2-0.3,0.5-0.5,0.6
		c-0.2,0.2-0.4,0.3-0.7,0.4s-0.5,0.2-0.8,0.3c-0.1-0.1-0.2-0.1-0.3-0.2c-0.1-0.1-0.2-0.1-0.4-0.2l0.1-0.2c-0.2-0.2-0.4-0.5-0.6-0.8
		c-0.2-0.3-0.3-0.6-0.2-0.9c0,0,0-0.1,0-0.2c0-0.1,0.1-0.3,0.1-0.5s0.1-0.3,0.1-0.5c0-0.2,0-0.2,0-0.2c-0.3,0-0.7,0.1-1,0.2
		c-0.4,0.1-0.7,0.3-1.1,0.4c-0.3,0.1-0.7,0.3-1,0.5c-0.3,0.2-0.5,0.3-0.7,0.4c0,0,0,0.1-0.1,0.3S27,40.8,26.9,41s-0.2,0.4-0.3,0.5
		c-0.1,0.1-0.2,0.2-0.3,0.2c0,0.1,0,0.1,0.1,0.1c0,0,0,0.1,0,0.2c-0.2,0.1-0.4,0.1-0.5,0.2c-0.2,0.1-0.3,0.2-0.5,0.2
		c-0.2,0.1-0.4,0.1-0.5,0.1c-0.2,0-0.4-0.1-0.7-0.2c0-0.1,0-0.2-0.1-0.2c-0.1-0.1-0.1-0.1-0.2-0.2c-0.1,0-0.1-0.1-0.2-0.1
		C23.5,41.8,23.5,41.7,23.5,41.7z"/>
	<path class="st2" d="M35.5,40.6l0.2-0.2l0-0.4c0.3-0.7,0.6-1.4,0.9-2.1c0.3-0.7,0.6-1.4,1-2.1c0.1-0.2,0.2-0.5,0.3-0.7
		s0.2-0.5,0.3-0.7c0,0,0-0.1,0-0.2c0-0.1,0-0.1,0-0.2c0.2-0.2,0.3-0.5,0.4-0.6c0.1-0.2,0.2-0.4,0.3-0.6c0.1-0.2,0.2-0.5,0.4-0.7
		c0.1-0.2,0.3-0.5,0.5-0.7l0.1-0.2l0.2,0c0,0,0.1,0,0.2-0.1c0.1,0,0.1,0,0.2,0l0.3,0.1c0.4-0.2,0.7-0.4,1.1-0.8s0.6-0.8,0.9-1.2
		l0.2-0.3l0.3,0.2c0.1,0,0.2,0.1,0.3,0.1s0.3,0.1,0.4,0.1c0.3,0.1,0.5,0.1,0.7,0.2c0.2,0.1,0.4,0.2,0.6,0.3l0.1,0.2
		c0,0.1,0,0.3,0.1,0.4c0,0.1,0,0.2,0.1,0.3c0,0.3,0.1,0.5,0.1,0.7c0,0.2,0.1,0.5,0.1,0.8c0.1,0.2,0.1,0.5,0.2,0.7
		c0.1,0.2,0.1,0.5,0.2,0.7c0.1,0.3,0.1,0.7,0.2,1c0.1,0.3,0.2,0.6,0.3,0.9c0.1,0,0.2,0,0.2,0c0.1-0.1,0.3-0.1,0.5-0.1l0.2,0l0.1,0.2
		c0,0,0.1,0.1,0.1,0.1c0,0,0.1,0.1,0.1,0.1c0.2,0,0.3,0.1,0.4,0.1c0.1,0.1,0.2,0.1,0.2,0.2c0,0,0.1,0.1,0.1,0.1c0,0,0.1,0.1,0.1,0.1
		l0.3,0.1l-0.2,0.3c-0.1,0.3-0.3,0.5-0.6,0.7c-0.3,0.2-0.6,0.4-0.9,0.6c0,0.1,0,0.2,0,0.2c0,0.1,0,0.2,0,0.3c0,0.2,0.1,0.5,0.1,0.7
		c0,0.3,0,0.5,0,0.8c-0.1,0.3-0.3,0.6-0.4,0.8c-0.2,0.2-0.4,0.5-0.6,0.7c-0.2,0.2-0.5,0.4-0.7,0.5c-0.3,0.1-0.6,0.2-0.9,0.2
		c-0.2,0-0.3-0.1-0.4-0.1s-0.1-0.1-0.2-0.1c-0.1-0.1-0.2-0.1-0.2-0.1l-0.2-0.1l0.1-0.3c0-0.1,0-0.2,0-0.3c0-0.1-0.1-0.2-0.3-0.3
		c0,0-0.1-0.1-0.1-0.1c0,0-0.1-0.1-0.1-0.1l-0.4-0.4l0.6-0.2c0.4-0.1,0.6-0.2,0.7-0.4c0.1-0.1,0.2-0.4,0.1-0.8
		c-0.3-0.1-0.5-0.1-0.7,0s-0.4,0.1-0.6,0.1c-0.3,0.1-0.5,0.1-0.8,0.2c-0.3,0.1-0.6,0.1-0.9,0.1c-0.2,0-0.4,0-0.6-0.1l-0.2,0
		l-0.1-0.2c0,0,0-0.1,0-0.1c0,0-0.1-0.1-0.1-0.1c-0.1-0.1-0.1-0.2-0.2-0.3c-0.1-0.1-0.1-0.3-0.1-0.5c-0.1-0.1-0.1-0.3-0.1-0.4
		c0,0.1-0.1,0.2-0.1,0.3s-0.1,0.2-0.1,0.3l-0.1,0.2l-0.2,0c0,0,0,0.1-0.1,0.1s0,0.1,0,0.1l0.1,0.2l-0.2,0.2c0,0-0.1,0.1-0.1,0.1
		c0,0-0.1,0-0.1,0.1c0,0.1-0.1,0.3-0.1,0.4c0,0.1-0.1,0.2-0.1,0.4c-0.1,0.2-0.1,0.4-0.2,0.6c-0.1,0.2-0.1,0.4-0.1,0.5l-0.1,0.2
		c-0.1,0.1-0.1,0.2-0.2,0.2s-0.2,0.1-0.3,0.1c-0.1,0-0.2,0.1-0.3,0.1l-0.1,0.2l-0.3,0c-0.2,0-0.3,0.1-0.3,0.1c-0.1,0-0.1,0-0.2,0
		l-0.2,0c-0.1-0.1-0.3-0.3-0.4-0.3s-0.2-0.1-0.3-0.2L36,41.7c0-0.1-0.1-0.2-0.1-0.3c0-0.1,0-0.2-0.1-0.2c0-0.2-0.1-0.3-0.1-0.3
		L35.5,40.6z M41.3,35.9c-0.2,0.2-0.3,0.5-0.5,0.8c0.1,0,0.2,0,0.2,0c0.1,0,0.2,0,0.2,0c0.4,0,0.8-0.1,1.2-0.1
		c0.4,0,0.7-0.1,1.2-0.2c-0.1-0.4-0.2-0.9-0.3-1.4c-0.1-0.5-0.2-0.9-0.4-1.4l-0.1,0.2c-0.3,0.3-0.6,0.7-0.9,1
		C41.7,35.2,41.5,35.6,41.3,35.9L41.3,35.9z"/>
	<path class="st2" d="M48.8,40.7c0-0.4,0-0.7,0-1c0-0.3,0.1-0.6,0.1-0.8s0.2-0.5,0.3-0.8c0.1-0.2,0.2-0.5,0.4-0.8
		c0.2-0.1,0.3-0.1,0.4-0.2c0.1-0.1,0.3-0.2,0.4-0.3c0.1-0.1,0.2-0.2,0.4-0.3c0.1-0.1,0.2-0.1,0.3-0.1l0.2-0.1
		c0.2-0.3,0.5-0.5,0.9-0.8c0.3-0.2,0.7-0.5,1.1-0.7c0.3-0.2,0.6-0.4,0.9-0.5c0.3-0.2,0.6-0.4,0.8-0.6c0.1,0,0.2,0,0.3-0.1
		c0.1-0.1,0.1-0.2,0.1-0.3c0,0,0.1-0.1,0.1-0.1c0,0,0.1-0.1,0.1-0.1c0.1-0.1,0.2-0.2,0.4-0.3c0.2-0.1,0.3-0.2,0.4-0.4l0.5-0.4
		l-0.6,0c-0.3,0-0.7,0-1,0.1s-0.7,0.1-0.9,0.1c-0.2,0-0.4,0-0.7,0.1c-0.2,0-0.5,0-0.7,0c-0.2-0.1-0.4-0.3-0.6-0.6
		c-0.2-0.2-0.3-0.5-0.4-0.7s-0.1-0.5-0.2-0.8c0-0.3,0-0.6,0.1-0.8c0.1,0,0.2-0.1,0.3-0.1c0.1,0,0.2-0.1,0.2-0.1c0.1,0,0.2,0,0.3,0
		c0,0,0.1,0,0.2,0c0.7-0.1,1.3-0.2,1.8-0.2c0.5,0,1,0.1,1.4,0.2c0.5,0,1,0,1.5-0.1c0.5,0,1.1,0,1.6,0.1c0.4-0.1,0.8-0.2,1.2-0.1
		c0.4,0.1,0.7,0.2,1,0.5c0,0.2,0.1,0.4,0.2,0.5c0.1,0.1,0.3,0.2,0.4,0.3c0.1,0.4,0.1,0.8,0,1.1s-0.2,0.6-0.5,0.8
		c-0.2,0.2-0.5,0.5-0.8,0.7c-0.3,0.2-0.6,0.4-0.9,0.6c-0.1,0.1-0.2,0.2-0.3,0.3c-0.1,0.1-0.2,0.2-0.3,0.3c-0.5,0.6-1,1.2-1.6,1.6
		s-1.2,0.9-1.9,1.3c-0.5,0.3-0.9,0.6-1.4,0.9c-0.4,0.3-0.9,0.6-1.3,1l-0.2,0.2l0.2,0.2c0.2,0.2,0.4,0.3,0.6,0.3c0.1,0,0.3,0,0.4-0.1
		c0.1,0,0.2-0.1,0.4-0.1c0.1,0,0.2-0.1,0.3-0.1c0.1,0,0.2,0,0.2,0l0.2,0c0.2-0.1,0.3-0.2,0.4-0.2c0.1,0,0.2-0.1,0.4-0.1
		c0.1,0,0.2-0.1,0.3-0.1s0.2-0.1,0.3-0.1c0.3,0,0.6,0,0.9-0.1c0.3-0.1,0.6-0.2,0.8-0.3c0.2-0.1,0.3-0.1,0.5-0.2
		c0.2-0.1,0.3-0.1,0.5-0.2c0.1,0.1,0.1,0.2,0.2,0.2c0.1,0.1,0.2,0.1,0.2,0.1c0.1,0.1,0.2,0.1,0.2,0.2s0.1,0.1,0.1,0.2l0.1,0.6
		l0.4-0.4c0.2,0.2,0.3,0.3,0.3,0.5c0,0.2,0,0.4-0.1,0.7c-0.5,0.5-1,0.8-1.7,1.1c-0.7,0.3-1.4,0.5-2.2,0.7c-0.2,0-0.3,0.1-0.5,0.1
		c-0.2,0-0.3,0.1-0.5,0.2l0-0.4L55,42.2c-0.1,0-0.1,0.1-0.1,0.1c0,0-0.1,0.1-0.1,0.1c-0.4,0.1-0.7,0.1-0.9,0.2s-0.5,0.1-0.7,0.1
		c-0.2,0.1-0.5,0.1-0.7,0.1C52.3,43,52,43,51.8,43c-0.1,0-0.2,0-0.2,0c-0.1,0-0.2,0-0.2,0c-0.1,0-0.2,0-0.3-0.1l-0.3-0.5l-0.3,0.3
		c-0.1-0.1-0.3-0.2-0.4-0.3c-0.1-0.1-0.3-0.2-0.4-0.4c-0.1-0.1-0.2-0.2-0.2-0.4l0-0.2l-0.2-0.1c0,0,0-0.1-0.1-0.2
		c0-0.1-0.1-0.2-0.1-0.3C48.9,40.9,48.9,40.8,48.8,40.7z"/>
	<path class="st2" d="M69.6,40.7c-0.3-0.3-0.6-0.6-0.9-1s-0.4-0.8-0.5-1.3C68.1,38,68,37.6,68,37.1c0-0.5-0.1-0.9,0-1.4
		c0.1-0.3,0.2-0.6,0.4-0.9s0.3-0.5,0.5-0.8c0.2-0.2,0.4-0.5,0.6-0.7c0.2-0.2,0.4-0.4,0.6-0.7c0.1,0,0.1,0,0.2,0.1
		c0-0.1,0.1-0.2,0.2-0.3c0.1-0.1,0.2-0.2,0.3-0.3s0.2-0.2,0.3-0.2c0.1-0.1,0.2-0.2,0.3-0.3c0.3-0.1,0.6-0.2,0.8-0.3
		c0.2-0.1,0.5-0.3,0.7-0.4c0.2-0.2,0.4-0.3,0.7-0.4c0.2-0.1,0.5-0.2,0.8-0.3c0.1-0.1,0.2-0.2,0.4-0.3c0.2-0.1,0.3-0.2,0.5-0.2
		c0.2-0.1,0.3-0.1,0.5-0.2s0.3-0.2,0.4-0.3c0.1,0.1,0.2,0.1,0.3,0.1c0.1,0,0.3-0.1,0.4-0.1c0.1,0,0.1,0,0.2,0c0,0,0.1,0.1,0.1,0.1
		s0.1,0.1,0.1,0.1c0,0,0.1,0,0.1-0.1c0.1,0,0.1,0.1,0.1,0.1s-0.1,0.1-0.1,0.1c0.1,0,0.2,0,0.3,0.1c0.1,0.1,0.2,0.1,0.4,0.1
		c0.1,0.1,0.1,0.1,0.1,0.1s0,0.1-0.1,0.2c0.4,0.1,0.7,0.3,0.8,0.6c0.1,0.3,0.1,0.6,0,0.9c-0.1,0.3-0.3,0.6-0.5,0.8s-0.5,0.4-0.9,0.5
		c-0.4,0.1-0.7,0.2-1,0.3c-0.3,0.1-0.6,0.2-0.9,0.3c-0.3,0.1-0.6,0.3-0.8,0.4c-0.3,0.2-0.5,0.4-0.7,0.6c-0.3,0.1-0.6,0.2-0.9,0.4
		c-0.3,0.2-0.5,0.4-0.8,0.6s-0.5,0.4-0.7,0.6s-0.4,0.4-0.6,0.7c0,0.2,0,0.4-0.1,0.5c-0.1,0.1-0.1,0.2-0.2,0.3c0,0.2,0.1,0.4,0.2,0.6
		c0.1,0.2,0.2,0.3,0.2,0.5c1,0.3,2,0.5,3,0.5c1.1,0.1,2.1,0.1,3.2,0.1c0.1,0.1,0.2,0.3,0.4,0.4c0.1,0.1,0.3,0.3,0.4,0.4
		c0.1,0.1,0.2,0.3,0.3,0.5s0.1,0.4,0,0.6c-0.2,0.2-0.4,0.4-0.7,0.6c-0.2,0.2-0.5,0.4-0.7,0.5c-0.1,0-0.2,0-0.4,0s-0.3,0-0.5,0
		c-0.2,0-0.3,0-0.5,0c-0.2,0-0.3,0.1-0.5,0.1c-0.8,0-1.5-0.1-2.3-0.3c-0.8-0.2-1.5-0.4-2.2-0.6c-0.1-0.2-0.3-0.3-0.4-0.4
		C70.1,40.9,69.9,40.8,69.6,40.7z"/>
	<path class="st2" d="M80.2,41.6c0,0-0.1-0.1-0.1-0.2S80,41.3,80,41.2c-0.2-0.2-0.3-0.4-0.4-0.7c-0.1-0.3-0.2-0.5-0.2-0.8
		c0-0.3,0-0.6,0-0.9c0-0.3,0.1-0.6,0.1-0.8c0-0.1,0.1-0.2,0.1-0.4c0.1-0.2,0.1-0.5,0.2-0.7s0.1-0.4,0.3-0.5c0-0.1,0-0.3,0-0.4
		c0.1-0.2,0.1-0.3,0.2-0.4c0,0,0-0.1,0.1-0.1c0,0,0-0.1,0-0.1c0.1-0.4,0.3-0.8,0.4-1.2c0.1-0.4,0.3-0.8,0.4-1.1
		c0.2-0.7,0.5-1.3,0.7-1.9c0.2-0.6,0.4-1.3,0.6-2c0.1-0.1,0.2-0.1,0.3-0.1c0,0,0.1,0,0.1,0c0,0,0.1,0,0.1,0c0.3,0.1,0.5,0.3,0.9,0.4
		c0.3,0.1,0.6,0.2,0.9,0.2l0.3,0.3c0.2,0.2,0.3,0.4,0.4,0.6c0.1,0.2,0.1,0.5,0.1,0.8c-0.1,0.1-0.1,0.2-0.2,0.2
		c-0.1,0.3-0.2,0.5-0.2,0.7c-0.1,0.2-0.2,0.4-0.3,0.6c-0.1,0.2-0.2,0.4-0.3,0.6c-0.1,0.2-0.2,0.5-0.2,0.8c-0.1,0.1-0.1,0.2-0.1,0.2
		c0,0.1,0,0.1-0.1,0.2c0,0.1-0.1,0.1-0.1,0.2s-0.1,0.1-0.2,0.2c0,0.4-0.1,0.7-0.2,0.9c-0.1,0.2-0.2,0.5-0.3,0.7
		c-0.2,0.4-0.3,0.8-0.5,1.3c-0.1,0.4-0.2,0.9-0.3,1.4c0.1,0,0.3-0.1,0.4-0.1c0.2,0,0.3,0,0.4,0.1c0.4-0.2,0.9-0.3,1.4-0.4
		c0.5,0,1-0.1,1.5-0.1c0.4,0,0.8,0,1.2-0.1c0.1,0.1,0.2,0.1,0.2,0.1c0,0,0.1,0,0.2,0c0,0,0.1,0,0.1,0c0,0,0.1,0,0.1,0
		c0.2,0.2,0.3,0.3,0.5,0.4c0.2,0.1,0.3,0.1,0.5,0.2c0.2,0.1,0.3,0.1,0.5,0.2c0.1,0.1,0.3,0.2,0.4,0.3l0.2,0.9
		c0.1,0.1,0.1,0.2,0.1,0.3c0,0.1,0,0.2-0.1,0.3l0,0.2c-0.2,0-0.4,0.1-0.4,0.2c-0.1,0.1-0.2,0.1-0.2,0.2c-0.1,0-0.3,0-0.4,0
		c-0.2,0-0.5,0-0.7,0.1c-0.4-0.1-0.8-0.2-1.2-0.2c-0.2,0-0.3,0-0.5,0s-0.3,0-0.5,0.1c-0.2,0-0.4,0-0.5,0.1c-0.2,0-0.4,0-0.5,0
		c-0.1,0-0.2,0-0.3,0.1s-0.1,0-0.2,0.1c-0.4,0.1-0.8,0.3-1.3,0.4c-0.5,0.1-1,0.2-1.4,0.2c-0.7,0-1.3-0.2-1.7-0.5
		c0-0.1-0.1-0.2-0.1-0.2C80.3,41.7,80.3,41.7,80.2,41.6z"/>
	<path class="st2" d="M91.2,42.5c-0.2-0.1-0.3-0.2-0.4-0.4c-0.1-0.2-0.2-0.3-0.3-0.5c-0.1-0.2-0.1-0.4-0.2-0.6
		c0-0.2-0.1-0.4-0.1-0.6c0-0.2,0-0.3,0.1-0.4c0.1-0.1,0.2-0.2,0.2-0.2c0.3,0,0.5,0,0.8-0.1c0.2,0,0.4-0.1,0.7-0.1s0.4-0.1,0.6-0.1
		c0.2,0,0.4,0,0.7,0c0.2-0.4,0.3-0.7,0.5-1.1c0.2-0.3,0.3-0.7,0.4-1c0.1-0.3,0.2-0.6,0.3-0.8c0.1-0.3,0.2-0.5,0.3-0.7
		c0.1-0.2,0.2-0.5,0.3-0.7c0.1-0.2,0.1-0.5,0.2-0.7c0.1-0.4,0.3-0.8,0.4-1.2s0.2-0.8,0.3-1.3c-0.5,0.1-0.8,0.1-1.1,0.2
		c-0.3,0.1-0.5,0.1-0.6,0.2c-0.2,0-0.4-0.1-0.6-0.1s-0.2-0.2-0.3-0.3c-0.1-0.1-0.2-0.3-0.2-0.4c-0.1-0.2-0.1-0.3-0.2-0.5
		c0-0.1,0.1-0.3,0-0.5c0-0.2-0.1-0.4-0.2-0.5c0.1,0,0.2-0.1,0.2-0.2c0-0.1,0.1-0.2,0-0.3c0.2-0.1,0.4-0.1,0.6-0.1
		c0.2,0,0.5,0,0.7-0.1c0.2,0,0.4,0,0.6-0.1c0.2,0,0.4-0.1,0.5-0.2c0.6,0,1.3,0,2-0.1c0.7,0,1.3-0.1,1.9-0.1c0.2,0.1,0.5,0.1,0.7,0.1
		c0.3,0,0.6,0,0.8,0.1s0.5,0.1,0.8,0.2c0.2,0.1,0.4,0.3,0.5,0.6c0.2,0,0.3,0.1,0.4,0.1c0.1,0.1,0.1,0.2,0.2,0.3c0,0.1,0,0.2,0,0.3
		s0,0.2,0,0.4c-0.2,0.1-0.4,0.3-0.7,0.4c-0.3,0.1-0.6,0.2-1,0.2c-0.3,0.1-0.7,0.1-1.1,0.1c-0.4,0-0.7,0-1.1,0
		c-0.1,0.4-0.2,0.9-0.3,1.4c-0.1,0.5-0.3,1.1-0.5,1.6c-0.2,0.5-0.3,1-0.4,1.4s-0.2,0.7-0.2,0.8c-0.1,0.3-0.2,0.5-0.3,0.7
		c-0.1,0.2-0.2,0.4-0.2,0.5c-0.1,0.2-0.1,0.3-0.2,0.5c-0.1,0.2-0.1,0.3-0.2,0.5h1.2c0,0.1,0.1,0.2,0.2,0.3c0.1,0,0.2,0.1,0.3,0.1
		c0.1,0,0.2,0.1,0.3,0.1s0.1,0.1,0.1,0.3c0.2,0.1,0.4,0.2,0.4,0.3c0.1,0.1,0.1,0.2,0,0.4S99,40.9,98.9,41c-0.1,0.1-0.2,0.3-0.3,0.4
		c-0.1,0-0.2,0-0.3,0.1c-0.1,0.1-0.2,0.2-0.3,0.3c-0.3,0-0.7-0.1-1,0c-0.3,0-0.6,0.1-0.9,0.1c-0.1,0-0.1,0-0.1,0.1
		c0,0.1,0,0.1,0,0.1c-0.4-0.1-0.8-0.2-1.1-0.1c-0.4,0-0.8,0.1-1.2,0.2c-0.4,0.1-0.8,0.2-1.2,0.3S91.6,42.5,91.2,42.5z"/>
	<path class="st2" d="M102,40.7c-0.3-0.3-0.6-0.6-0.9-1s-0.4-0.8-0.5-1.3c-0.1-0.4-0.2-0.9-0.3-1.4c0-0.5-0.1-0.9,0-1.4
		c0.1-0.3,0.2-0.6,0.4-0.9s0.3-0.5,0.5-0.8c0.2-0.2,0.4-0.5,0.6-0.7c0.2-0.2,0.4-0.4,0.6-0.7c0.1,0,0.1,0,0.2,0.1
		c0-0.1,0.1-0.2,0.2-0.3c0.1-0.1,0.2-0.2,0.3-0.3s0.2-0.2,0.3-0.2c0.1-0.1,0.2-0.2,0.3-0.3c0.3-0.1,0.6-0.2,0.8-0.3
		c0.2-0.1,0.5-0.3,0.7-0.4c0.2-0.2,0.4-0.3,0.7-0.4c0.2-0.1,0.5-0.2,0.8-0.3c0.1-0.1,0.2-0.2,0.4-0.3c0.2-0.1,0.3-0.2,0.5-0.2
		c0.2-0.1,0.3-0.1,0.5-0.2s0.3-0.2,0.4-0.3c0.1,0.1,0.2,0.1,0.3,0.1c0.1,0,0.3-0.1,0.4-0.1c0.1,0,0.1,0,0.2,0c0,0,0.1,0.1,0.1,0.1
		s0.1,0.1,0.1,0.1c0,0,0.1,0,0.1-0.1c0.1,0,0.1,0.1,0.1,0.1s-0.1,0.1-0.1,0.1c0.1,0,0.2,0,0.3,0.1c0.1,0.1,0.2,0.1,0.4,0.1
		c0.1,0.1,0.1,0.1,0.1,0.1s0,0.1-0.1,0.2c0.4,0.1,0.7,0.3,0.8,0.6c0.1,0.3,0.1,0.6,0,0.9c-0.1,0.3-0.3,0.6-0.5,0.8s-0.5,0.4-0.9,0.5
		c-0.4,0.1-0.7,0.2-1,0.3c-0.3,0.1-0.6,0.2-0.9,0.3c-0.3,0.1-0.6,0.3-0.8,0.4c-0.3,0.2-0.5,0.4-0.7,0.6c-0.3,0.1-0.6,0.2-0.9,0.4
		c-0.3,0.2-0.5,0.4-0.8,0.6s-0.5,0.4-0.7,0.6s-0.4,0.4-0.6,0.7c0,0.2,0,0.4-0.1,0.5c-0.1,0.1-0.1,0.2-0.2,0.3c0,0.2,0.1,0.4,0.2,0.6
		c0.1,0.2,0.2,0.3,0.2,0.5c1,0.3,2,0.5,3,0.5c1.1,0.1,2.1,0.1,3.2,0.1c0.1,0.1,0.2,0.3,0.4,0.4c0.1,0.1,0.3,0.3,0.4,0.4
		c0.1,0.1,0.2,0.3,0.3,0.5s0.1,0.4,0,0.6c-0.2,0.2-0.4,0.4-0.7,0.6c-0.2,0.2-0.5,0.4-0.7,0.5c-0.1,0-0.2,0-0.4,0s-0.3,0-0.5,0
		c-0.2,0-0.3,0-0.5,0c-0.2,0-0.3,0.1-0.5,0.1c-0.8,0-1.5-0.1-2.3-0.3c-0.8-0.2-1.5-0.4-2.2-0.6c-0.1-0.2-0.3-0.3-0.4-0.4
		C102.5,40.9,102.3,40.8,102,40.7z"/>
	<path class="st2" d="M118,40.6l0.2-0.2l0-0.4c0.3-0.7,0.6-1.4,0.9-2.1c0.3-0.7,0.6-1.4,1-2.1c0.1-0.2,0.2-0.5,0.3-0.7
		s0.2-0.5,0.3-0.7c0,0,0-0.1,0-0.2c0-0.1,0-0.1,0-0.2c0.2-0.2,0.3-0.5,0.4-0.6c0.1-0.2,0.2-0.4,0.3-0.6c0.1-0.2,0.2-0.5,0.4-0.7
		c0.1-0.2,0.3-0.5,0.5-0.7l0.1-0.2l0.2,0c0,0,0.1,0,0.2-0.1c0.1,0,0.1,0,0.2,0l0.3,0.1c0.4-0.2,0.7-0.4,1.1-0.8s0.6-0.8,0.9-1.2
		l0.2-0.3l0.3,0.2c0.1,0,0.2,0.1,0.3,0.1s0.3,0.1,0.4,0.1c0.3,0.1,0.5,0.1,0.7,0.2c0.2,0.1,0.4,0.2,0.6,0.3l0.1,0.2
		c0,0.1,0,0.3,0.1,0.4c0,0.1,0,0.2,0.1,0.3c0,0.3,0.1,0.5,0.1,0.7c0,0.2,0.1,0.5,0.1,0.8c0.1,0.2,0.1,0.5,0.2,0.7
		c0.1,0.2,0.1,0.5,0.2,0.7c0.1,0.3,0.1,0.7,0.2,1c0.1,0.3,0.2,0.6,0.3,0.9c0.1,0,0.2,0,0.2,0c0.1-0.1,0.3-0.1,0.5-0.1l0.2,0l0.1,0.2
		c0,0,0.1,0.1,0.1,0.1c0,0,0.1,0.1,0.1,0.1c0.2,0,0.3,0.1,0.4,0.1c0.1,0.1,0.2,0.1,0.2,0.2c0,0,0.1,0.1,0.1,0.1c0,0,0.1,0.1,0.1,0.1
		l0.3,0.1l-0.2,0.3c-0.1,0.3-0.3,0.5-0.6,0.7c-0.3,0.2-0.6,0.4-0.9,0.6c0,0.1,0,0.2,0,0.2c0,0.1,0,0.2,0,0.3c0,0.2,0.1,0.5,0.1,0.7
		c0,0.3,0,0.5,0,0.8c-0.1,0.3-0.3,0.6-0.4,0.8c-0.2,0.2-0.4,0.5-0.6,0.7c-0.2,0.2-0.5,0.4-0.7,0.5c-0.3,0.1-0.6,0.2-0.9,0.2
		c-0.2,0-0.3-0.1-0.4-0.1s-0.1-0.1-0.2-0.1c-0.1-0.1-0.2-0.1-0.2-0.1l-0.2-0.1l0.1-0.3c0-0.1,0-0.2,0-0.3c0-0.1-0.1-0.2-0.3-0.3
		c0,0-0.1-0.1-0.1-0.1c0,0-0.1-0.1-0.1-0.1l-0.4-0.4l0.6-0.2c0.4-0.1,0.6-0.2,0.7-0.4c0.1-0.1,0.2-0.4,0.1-0.8
		c-0.3-0.1-0.5-0.1-0.7,0s-0.4,0.1-0.6,0.1c-0.3,0.1-0.5,0.1-0.8,0.2c-0.3,0.1-0.6,0.1-0.9,0.1c-0.2,0-0.4,0-0.6-0.1l-0.2,0
		l-0.1-0.2c0,0,0-0.1,0-0.1c0,0-0.1-0.1-0.1-0.1c-0.1-0.1-0.1-0.2-0.2-0.3c-0.1-0.1-0.1-0.3-0.1-0.5c-0.1-0.1-0.1-0.3-0.1-0.4
		c0,0.1-0.1,0.2-0.1,0.3s-0.1,0.2-0.1,0.3l-0.1,0.2l-0.2,0c0,0,0,0.1-0.1,0.1s0,0.1,0,0.1l0.1,0.2l-0.2,0.2c0,0-0.1,0.1-0.1,0.1
		c0,0-0.1,0-0.1,0.1c0,0.1-0.1,0.3-0.1,0.4c0,0.1-0.1,0.2-0.1,0.4c-0.1,0.2-0.1,0.4-0.2,0.6c-0.1,0.2-0.1,0.4-0.1,0.5l-0.1,0.2
		c-0.1,0.1-0.1,0.2-0.2,0.2s-0.2,0.1-0.3,0.1c-0.1,0-0.2,0.1-0.3,0.1l-0.1,0.2l-0.3,0c-0.2,0-0.3,0.1-0.3,0.1c-0.1,0-0.1,0-0.2,0
		l-0.2,0c-0.1-0.1-0.3-0.3-0.4-0.3s-0.2-0.1-0.3-0.2l-0.1-0.1c0-0.1-0.1-0.2-0.1-0.3c0-0.1,0-0.2-0.1-0.2c0-0.2-0.1-0.3-0.1-0.3
		L118,40.6z M123.7,35.9c-0.2,0.2-0.3,0.5-0.5,0.8c0.1,0,0.2,0,0.2,0c0.1,0,0.2,0,0.2,0c0.4,0,0.8-0.1,1.2-0.1
		c0.4,0,0.7-0.1,1.2-0.2c-0.1-0.4-0.2-0.9-0.3-1.4c-0.1-0.5-0.2-0.9-0.4-1.4l-0.1,0.2c-0.3,0.3-0.6,0.7-0.9,1
		C124.1,35.2,123.9,35.6,123.7,35.9L123.7,35.9z"/>
	<path class="st2" d="M131.6,40.7c0-0.2,0-0.4,0-0.5c0-0.1-0.1-0.3-0.1-0.4s-0.1-0.3-0.1-0.4c0-0.1,0-0.3,0.1-0.5
		c0-0.1-0.1-0.2-0.1-0.3c0-0.1-0.1-0.2-0.1-0.3c0-0.5,0.1-1,0.3-1.5c0.2-0.4,0.4-0.8,0.7-1.2c0.3-0.4,0.6-0.7,0.9-1s0.6-0.6,0.9-0.9
		c0.1,0.1,0.1,0.1,0.1,0c0,0,0.1-0.1,0.2,0c0-0.1,0-0.2,0.1-0.3c0.1-0.1,0.1-0.2,0.2-0.3c0.1-0.1,0.2-0.2,0.3-0.2s0.2-0.1,0.3-0.1
		c0.1-0.2,0.3-0.4,0.5-0.6c0.2-0.2,0.5-0.3,0.7-0.5c0.3-0.2,0.5-0.4,0.7-0.6c0.2-0.2,0.3-0.5,0.4-0.8h0.4c-0.1-0.2-0.2-0.4-0.2-0.7
		c0-0.2,0.1-0.4,0.2-0.6c0.1-0.1,0.3-0.2,0.6-0.3c0.2,0,0.5,0,0.8,0.2c0.1,0,0.2,0,0.3-0.1c0-0.1,0.1-0.1,0.2-0.1
		c0.6,0.2,1,0.5,1.5,0.9c0.4,0.3,0.8,0.7,1.2,1.2c0,0-0.1,0.1-0.1,0.1c0,0-0.1,0-0.1,0.1c0,0,0,0,0,0.1c0,0,0,0.1,0.1,0.1
		c0.4,0.5,0.8,1.1,1.1,1.6c0.3,0.6,0.6,1.2,0.9,1.8c0.1,0.5,0.1,1,0.1,1.5c0,0.5-0.1,1-0.2,1.5c-0.1,0.2-0.2,0.4-0.3,0.6
		c-0.1,0.2-0.3,0.3-0.4,0.5c-0.1,0.2-0.3,0.3-0.4,0.5s-0.3,0.3-0.4,0.5l0.3,0.7c0,0.1,0,0.2,0.1,0.3c0,0.1,0.1,0.2,0.1,0.3
		c0,0.1,0.1,0.2,0.1,0.3c0,0.1,0,0.2,0,0.3c0,0.1,0.1,0.1,0.2,0.1c0,0-0.1,0.1-0.1,0.1c0,0.1,0,0.1,0.2,0.1c0,0.1-0.1,0.3-0.2,0.5
		c-0.1,0.2-0.2,0.3-0.3,0.5c-0.1,0.1-0.3,0.3-0.5,0.4c-0.2,0.1-0.4,0.2-0.6,0.2c-0.2-0.1-0.4-0.2-0.6-0.4c-0.1-0.1-0.3-0.3-0.5-0.4
		l-0.7-1.6c-0.9,0.4-1.8,0.7-2.8,1c-1,0.2-2,0.4-3.2,0.5c-0.6-0.2-1.1-0.4-1.6-0.7C132.3,41.6,131.9,41.2,131.6,40.7z M136.2,36
		c-0.5,0.4-1,0.9-1.4,1.5s-0.8,1.2-1,1.9c0.1,0.1,0.2,0.1,0.4,0.1s0.3,0,0.4,0.1c0.7-0.2,1.4-0.4,2.1-0.5c0.7-0.2,1.4-0.4,2.1-0.7
		c-0.3-0.3-0.5-0.7-0.8-1s-0.4-0.6-0.6-0.9c0-0.1,0.1-0.2,0.1-0.3c0-0.1,0.1-0.2,0.1-0.3c0-0.1,0.1-0.2,0.2-0.3
		c0.1-0.1,0.2-0.1,0.3-0.1c0.2,0.1,0.5,0.1,0.8,0.1c0.3,0,0.6,0,0.8,0.1c0.2,0.2,0.4,0.4,0.6,0.6c0.2,0.2,0.4,0.5,0.5,0.7
		c0.3-0.2,0.5-0.5,0.7-0.8c0.2-0.3,0.3-0.6,0.4-1c-0.1-0.2-0.2-0.4-0.3-0.6c-0.1-0.2-0.2-0.5-0.4-0.7c-0.1-0.2-0.3-0.4-0.5-0.6
		s-0.4-0.3-0.6-0.4c-0.1,0-0.2,0-0.2,0c0,0.1-0.1,0.1-0.2,0c-0.6,0.5-1.3,0.9-1.9,1.4S136.8,35.4,136.2,36z"/>
	<path class="st2" d="M146.2,33.4c0-0.2-0.1-0.3-0.1-0.3c0.1-0.2,0.1-0.4,0.2-0.6c0-0.2,0.1-0.4,0.1-0.6c0-0.2,0.1-0.3,0.1-0.5
		c0-0.1,0.1-0.3,0.1-0.4c0.2,0,0.4-0.1,0.5-0.3s0.2-0.2,0.2-0.3c0.2,0,0.4,0,0.4,0.1c0.1,0.1,0.1,0.2,0.2,0.4
		c0.1,0.1,0.1,0.3,0.3,0.4c0.1,0.1,0.3,0.3,0.5,0.4c0,0.1,0.1,0.3,0.1,0.4c0,0.1,0.1,0.2,0.2,0.4c0.1,0.3,0.2,0.5,0.3,0.8
		s0.1,0.5,0.2,0.8c-0.1,0.3-0.3,0.6-0.3,1s-0.1,0.7-0.1,1.1c0,0.4,0,0.7,0,1.1c0,0.3,0.1,0.6,0.2,0.8l0.1,0.3l0.4,0
		c0.4-0.1,0.8-0.2,1.2-0.4s0.7-0.3,1-0.5c0.3-0.2,0.6-0.4,0.9-0.7c0.3-0.2,0.6-0.5,0.9-0.9c0.3-0.3,0.5-0.7,0.8-1.1
		c0.2-0.4,0.4-0.9,0.6-1.3c0.1-0.5,0.3-0.9,0.4-1.4c0.1-0.5,0.1-0.9,0.2-1.3c0.2-0.1,0.4-0.3,0.4-0.5l-0.1-0.2c0-0.1-0.1-0.1,0-0.2
		c0-0.1,0-0.1,0-0.2c0.1-0.3,0.3-0.5,0.6-0.6c0.2,0.1,0.4,0.3,0.6,0.5s0.4,0.3,0.5,0.5c0,0.3,0.1,0.6,0.1,0.8
		c0.1,0.2,0.1,0.5,0.2,0.7c0.1,0.2,0.2,0.4,0.2,0.6c0.1,0.2,0.1,0.4,0.1,0.7c-0.1,0.4-0.2,0.7-0.3,1c-0.1,0.3-0.1,0.7-0.2,1l0,0.2
		c-0.2,0.4-0.4,0.8-0.6,1.1c-0.2,0.4-0.4,0.7-0.5,1c-0.1,0.1-0.1,0.2-0.2,0.3c-0.1,0.1-0.1,0.2-0.2,0.3c0,0-0.1,0.1-0.1,0.2
		S156,37.9,156,38l-0.4-0.2l-0.1,0.6l-0.3,0.1l-0.2,0.3c-0.3,0.5-0.6,0.9-0.9,1.2c-0.3,0.3-0.6,0.6-1,0.9c-0.4,0.3-0.8,0.5-1.3,0.7
		s-1,0.5-1.6,0.7c-0.2,0-0.4-0.1-0.6-0.1s-0.3,0-0.5,0c-0.2,0-0.3,0-0.5,0c-0.2,0-0.3,0-0.5-0.1c0-0.1-0.1-0.2-0.2-0.2
		c-0.1,0-0.2-0.1-0.2-0.1c-0.2-0.1-0.4-0.3-0.5-0.5s-0.2-0.5-0.4-0.7c-0.1-0.1-0.1-0.3-0.2-0.4c-0.1-0.1-0.1-0.3-0.2-0.4l0.4-0.1
		l-0.5-0.5c0,0-0.1-0.1-0.1-0.1s-0.1-0.1-0.1-0.1v-0.3c0-1-0.1-1.9-0.1-2.7S145.9,34.1,146.2,33.4L146.2,33.4z"/>
	<path class="st2" d="M157.2,42.5c-0.2-0.1-0.3-0.2-0.4-0.4c-0.1-0.2-0.2-0.3-0.3-0.5c-0.1-0.2-0.1-0.4-0.2-0.6
		c0-0.2-0.1-0.4-0.1-0.6c0-0.2,0-0.3,0.1-0.4c0.1-0.1,0.1-0.2,0.2-0.2c0.3,0,0.5,0,0.8-0.1c0.2,0,0.4-0.1,0.7-0.1s0.4-0.1,0.6-0.1
		c0.2,0,0.4,0,0.7,0c0.2-0.4,0.3-0.7,0.5-1.1c0.2-0.3,0.3-0.7,0.5-1c0.1-0.3,0.2-0.6,0.3-0.8c0.1-0.3,0.2-0.5,0.3-0.7
		c0.1-0.2,0.2-0.5,0.3-0.7c0.1-0.2,0.1-0.5,0.2-0.7c0.1-0.4,0.3-0.8,0.4-1.2c0.1-0.4,0.2-0.8,0.3-1.3c-0.5,0.1-0.8,0.1-1.1,0.2
		c-0.3,0.1-0.5,0.1-0.6,0.2c-0.2,0-0.4-0.1-0.6-0.1s-0.2-0.2-0.3-0.3c-0.1-0.1-0.2-0.3-0.2-0.4c-0.1-0.2-0.1-0.3-0.2-0.5
		c0-0.1,0.1-0.3,0-0.5c0-0.2-0.1-0.4-0.2-0.5c0.1,0,0.2-0.1,0.2-0.2c0-0.1,0.1-0.2,0-0.3c0.2-0.1,0.4-0.1,0.6-0.1
		c0.2,0,0.5,0,0.7-0.1c0.2,0,0.4,0,0.6-0.1c0.2,0,0.4-0.1,0.5-0.2c0.6,0,1.3,0,2-0.1c0.7,0,1.3-0.1,1.9-0.1c0.2,0.1,0.5,0.1,0.7,0.1
		c0.3,0,0.6,0,0.8,0.1c0.3,0,0.5,0.1,0.8,0.2c0.2,0.1,0.4,0.3,0.5,0.6c0.2,0,0.3,0.1,0.4,0.1c0.1,0.1,0.1,0.2,0.2,0.3
		c0,0.1,0,0.2,0,0.3s0,0.2,0,0.4c-0.2,0.1-0.4,0.3-0.7,0.4c-0.3,0.1-0.6,0.2-1,0.2c-0.3,0.1-0.7,0.1-1.1,0.1c-0.4,0-0.7,0-1.1,0
		c-0.1,0.4-0.2,0.9-0.3,1.4c-0.2,0.5-0.3,1.1-0.5,1.6c-0.2,0.5-0.3,1-0.4,1.4s-0.2,0.7-0.2,0.8c-0.1,0.3-0.2,0.5-0.3,0.7
		s-0.2,0.4-0.2,0.5c-0.1,0.2-0.1,0.3-0.2,0.5c-0.1,0.2-0.1,0.3-0.2,0.5h1.2c0,0.1,0.1,0.2,0.2,0.3c0.1,0,0.2,0.1,0.3,0.1
		c0.1,0,0.2,0.1,0.3,0.1c0.1,0.1,0.1,0.1,0.1,0.3c0.2,0.1,0.4,0.2,0.4,0.3c0.1,0.1,0.1,0.2,0,0.4s-0.1,0.3-0.2,0.4
		c-0.1,0.1-0.2,0.3-0.3,0.4c-0.1,0-0.2,0-0.3,0.1c-0.1,0.1-0.2,0.2-0.3,0.3c-0.3,0-0.7-0.1-1,0c-0.3,0-0.6,0.1-0.9,0.1
		c-0.1,0-0.1,0-0.1,0.1c0,0.1,0,0.1,0,0.1c-0.4-0.1-0.8-0.2-1.1-0.1c-0.4,0-0.8,0.1-1.2,0.2c-0.4,0.1-0.8,0.2-1.2,0.3
		S157.7,42.5,157.2,42.5z M168.5,24.4c-0.1,0-0.3,0.1-0.5,0.3c-0.2,0.1-0.5,0.4-0.9,0.7c-0.2,0.2-0.4,0.4-0.6,0.6
		c-0.3,0.2-0.5,0.5-0.8,0.7c-0.3,0.2-0.6,0.4-0.9,0.6c-0.3,0.2-0.6,0.3-0.9,0.3c-0.1-0.1-0.2-0.2-0.3-0.3c-0.1-0.1-0.2-0.2-0.2-0.3
		s-0.1-0.2-0.1-0.3c0-0.1,0-0.2,0.1-0.3c-0.2-0.3-0.2-0.4-0.2-0.6s0.1-0.2,0.2-0.3c0.1-0.1,0.2-0.2,0.3-0.3s0.2-0.2,0.3-0.4
		c0.3-0.3,0.6-0.6,0.9-0.9c0.3-0.3,0.6-0.6,0.9-1c0.1,0,0.2-0.1,0.4-0.2s0.2-0.2,0.3-0.3c0.1-0.1,0.2-0.2,0.3-0.3
		c0.1-0.1,0.2-0.2,0.4-0.3c0,0.1,0.1,0.1,0.2,0.2c0.1,0.1,0.2,0.1,0.3,0c0,0.1,0.1,0.3,0.2,0.4s0.2,0.2,0.3,0.3
		c0.1,0.2,0.1,0.3,0.2,0.5c0.1,0.1,0.1,0.3,0.2,0.4s0.1,0.3,0,0.4S168.6,24.3,168.5,24.4z"/>
</g>
</svg>
