<?xml version="1.0" encoding="utf-8"?>
<!-- Generator: Adobe Illustrator 19.2.1, SVG Export Plug-In . SVG Version: 6.00 Build 0)  -->
<svg version="1.1" id="Layer_1" xmlns="http://www.w3.org/2000/svg" xmlns:xlink="http://www.w3.org/1999/xlink" x="0px" y="0px"
	 viewBox="0 0 100 100" style="enable-background:new 0 0 100 100;" xml:space="preserve">
<style type="text/css">
	.st0{fill:#C4E8FA;}
</style>
<g>
	<path class="st0" d="M-0.2,76.8v-12c25.1,0,25.1-12.9,50.2-12.9s25.1,12.9,50.2,12.9v12c-25.1,0-25.1-12.9-50.2-12.9
		S24.9,76.8-0.2,76.8"/>
	<g>
		<path class="st0" d="M-0.2,53.7v-12c25.1,0,25.1-12.9,50.2-12.9s25.1,12.9,50.2,12.9v12c-25.1,0-25.1-12.9-50.2-12.9
			S24.9,53.7-0.2,53.7"/>
		<path class="st0" d="M-0.2,100V88C24.9,88,24.9,75.1,50,75.1S75.1,88,100.2,88v12C75.1,100,75.1,87.1,50,87.1S24.9,100-0.2,100"/>
	</g>
</g>
</svg>
